<svg width="240" height="60" viewBox="0 0 240 60" fill="none" xmlns="http://www.w3.org/2000/svg">
<rect width="240" height="60" fill="#F2F4F5"/>
<path d="M82.76 39.24C81.192 39.24 79.848 38.88 78.728 38.16C77.608 37.432 76.748 36.4 76.148 35.064C75.556 33.72 75.26 32.112 75.26 30.24C75.26 28.376 75.556 26.788 76.148 25.476C76.74 24.156 77.596 23.148 78.716 22.452C79.836 21.756 81.184 21.408 82.76 21.408C84.008 21.408 85.116 21.664 86.084 22.176C87.052 22.688 87.828 23.376 88.412 24.24C89.004 25.104 89.356 26.06 89.468 27.108H86.732C86.612 26.452 86.38 25.86 86.036 25.332C85.7 24.796 85.252 24.376 84.692 24.072C84.132 23.76 83.468 23.604 82.7 23.604C81.716 23.604 80.88 23.836 80.192 24.3C79.504 24.764 78.98 25.488 78.62 26.472C78.268 27.456 78.092 28.724 78.092 30.276C78.092 32.62 78.488 34.336 79.28 35.424C80.072 36.504 81.212 37.044 82.7 37.044C83.468 37.044 84.132 36.88 84.692 36.552C85.252 36.216 85.7 35.772 86.036 35.22C86.38 34.66 86.612 34.052 86.732 33.396H89.468C89.372 34.156 89.172 34.888 88.868 35.592C88.564 36.288 88.14 36.912 87.596 37.464C87.06 38.016 86.392 38.452 85.592 38.772C84.792 39.084 83.848 39.24 82.76 39.24ZM95.78 39.24C94.98 39.24 94.268 39.096 93.644 38.808C93.028 38.52 92.544 38.104 92.192 37.56C91.84 37.016 91.664 36.36 91.664 35.592C91.664 34.216 92.148 33.188 93.116 32.508C94.092 31.828 95.652 31.468 97.796 31.428L99.836 31.368V30.468C99.836 29.756 99.624 29.196 99.2 28.788C98.776 28.38 98.12 28.18 97.232 28.188C96.576 28.188 95.988 28.34 95.468 28.644C94.948 28.948 94.608 29.448 94.448 30.144H92.228C92.276 29.32 92.512 28.628 92.936 28.068C93.368 27.5 93.96 27.072 94.712 26.784C95.464 26.496 96.344 26.352 97.352 26.352C98.488 26.352 99.42 26.508 100.148 26.82C100.876 27.124 101.416 27.572 101.768 28.164C102.128 28.756 102.308 29.476 102.308 30.324V39H100.124L99.932 36.72C99.468 37.672 98.88 38.332 98.168 38.7C97.456 39.06 96.66 39.24 95.78 39.24ZM96.584 37.452C96.976 37.452 97.364 37.384 97.748 37.248C98.132 37.104 98.48 36.912 98.792 36.672C99.104 36.424 99.352 36.148 99.536 35.844C99.728 35.54 99.828 35.228 99.836 34.908V32.856L98.156 32.892C97.3 32.9 96.572 32.988 95.972 33.156C95.38 33.324 94.924 33.584 94.604 33.936C94.292 34.288 94.136 34.756 94.136 35.34C94.136 36.004 94.364 36.524 94.82 36.9C95.284 37.268 95.872 37.452 96.584 37.452ZM109.848 39.084C108.928 39.084 108.216 38.96 107.712 38.712C107.208 38.464 106.856 38.108 106.656 37.644C106.456 37.172 106.356 36.604 106.356 35.94V28.44H104.34V26.592H106.44L107.064 22.944H108.936V26.58H111.72V28.44H108.936L108.948 35.844C108.948 36.252 108.988 36.552 109.068 36.744C109.156 36.928 109.3 37.048 109.5 37.104C109.708 37.152 109.988 37.176 110.34 37.176H111.78V38.844C111.628 38.908 111.392 38.964 111.072 39.012C110.76 39.06 110.352 39.084 109.848 39.084ZM119.647 39.24C118.471 39.24 117.435 38.988 116.539 38.484C115.643 37.972 114.943 37.244 114.439 36.3C113.943 35.356 113.695 34.232 113.695 32.928C113.695 31.64 113.923 30.504 114.379 29.52C114.835 28.528 115.495 27.752 116.359 27.192C117.223 26.632 118.263 26.352 119.479 26.352C120.671 26.352 121.679 26.608 122.503 27.12C123.327 27.632 123.951 28.352 124.375 29.28C124.799 30.2 125.011 31.288 125.011 32.544V33.396H116.275C116.267 34.14 116.387 34.808 116.635 35.4C116.883 35.984 117.251 36.448 117.739 36.792C118.235 37.128 118.851 37.296 119.587 37.296C120.331 37.296 120.971 37.128 121.507 36.792C122.051 36.456 122.407 35.956 122.575 35.292H124.951C124.807 36.14 124.467 36.86 123.931 37.452C123.395 38.044 122.751 38.492 121.999 38.796C121.247 39.092 120.463 39.24 119.647 39.24ZM116.275 31.728H122.563C122.563 31.08 122.451 30.492 122.227 29.964C122.003 29.428 121.659 29.008 121.195 28.704C120.739 28.392 120.163 28.236 119.467 28.236C118.755 28.236 118.163 28.408 117.691 28.752C117.219 29.096 116.863 29.536 116.623 30.072C116.391 30.608 116.275 31.16 116.275 31.728ZM133.23 43.104C131.214 43.104 129.654 42.82 128.55 42.252C127.446 41.692 126.894 40.908 126.894 39.9C126.894 39.46 126.998 39.088 127.206 38.784C127.422 38.472 127.674 38.216 127.962 38.016C128.258 37.816 128.53 37.66 128.778 37.548C129.026 37.428 129.186 37.344 129.258 37.296C129.122 37.216 128.946 37.116 128.73 36.996C128.522 36.868 128.334 36.7 128.166 36.492C127.998 36.276 127.914 35.996 127.914 35.652C127.914 35.252 128.102 34.884 128.478 34.548C128.862 34.204 129.438 33.952 130.206 33.792C129.454 33.424 128.87 32.928 128.454 32.304C128.038 31.68 127.83 31.016 127.83 30.312C127.83 29.504 128.058 28.808 128.514 28.224C128.97 27.632 129.61 27.18 130.434 26.868C131.266 26.556 132.242 26.4 133.362 26.4C134.186 26.4 134.87 26.492 135.414 26.676C135.966 26.86 136.474 27.116 136.938 27.444C137.09 27.388 137.306 27.304 137.586 27.192C137.874 27.072 138.186 26.944 138.522 26.808C138.858 26.672 139.178 26.54 139.482 26.412C139.794 26.284 140.046 26.18 140.238 26.1L140.226 28.332L138.066 28.728C138.178 28.968 138.266 29.232 138.33 29.52C138.402 29.808 138.438 30.072 138.438 30.312C138.438 31.032 138.242 31.696 137.85 32.304C137.458 32.904 136.87 33.384 136.086 33.744C135.302 34.104 134.322 34.284 133.146 34.284C133.034 34.284 132.89 34.284 132.714 34.284C132.538 34.276 132.39 34.264 132.27 34.248C131.526 34.272 131.014 34.36 130.734 34.512C130.454 34.656 130.314 34.816 130.314 34.992C130.314 35.216 130.494 35.368 130.854 35.448C131.214 35.528 131.806 35.596 132.63 35.652C132.926 35.676 133.302 35.7 133.758 35.724C134.222 35.748 134.734 35.78 135.294 35.82C136.654 35.9 137.69 36.24 138.402 36.84C139.122 37.44 139.482 38.236 139.482 39.228C139.482 40.364 138.966 41.292 137.934 42.012C136.902 42.74 135.334 43.104 133.23 43.104ZM133.674 41.532C134.77 41.532 135.598 41.372 136.158 41.052C136.718 40.74 136.998 40.272 136.998 39.648C136.998 39.184 136.818 38.804 136.458 38.508C136.098 38.212 135.558 38.04 134.838 37.992L131.526 37.776C131.198 37.76 130.87 37.832 130.542 37.992C130.222 38.152 129.958 38.376 129.75 38.664C129.542 38.944 129.438 39.256 129.438 39.6C129.438 40.224 129.782 40.7 130.47 41.028C131.158 41.364 132.226 41.532 133.674 41.532ZM133.218 32.712C134.05 32.712 134.718 32.512 135.222 32.112C135.734 31.704 135.99 31.12 135.99 30.36C135.99 29.576 135.734 28.972 135.222 28.548C134.718 28.116 134.05 27.9 133.218 27.9C132.378 27.9 131.698 28.116 131.178 28.548C130.666 28.98 130.41 29.584 130.41 30.36C130.41 31.096 130.654 31.672 131.142 32.088C131.638 32.504 132.33 32.712 133.218 32.712ZM147.531 39.24C146.371 39.24 145.359 38.992 144.495 38.496C143.631 37.992 142.959 37.264 142.479 36.312C141.999 35.36 141.759 34.208 141.759 32.856C141.759 31.552 141.987 30.412 142.443 29.436C142.899 28.46 143.555 27.704 144.411 27.168C145.275 26.624 146.319 26.352 147.543 26.352C148.711 26.352 149.723 26.608 150.579 27.12C151.435 27.624 152.099 28.364 152.571 29.34C153.043 30.308 153.279 31.48 153.279 32.856C153.279 34.112 153.059 35.22 152.619 36.18C152.179 37.14 151.531 37.892 150.675 38.436C149.827 38.972 148.779 39.24 147.531 39.24ZM147.543 37.26C148.255 37.26 148.847 37.076 149.319 36.708C149.791 36.332 150.147 35.808 150.387 35.136C150.627 34.456 150.747 33.672 150.747 32.784C150.747 31.96 150.639 31.212 150.423 30.54C150.215 29.86 149.875 29.32 149.403 28.92C148.939 28.52 148.319 28.32 147.543 28.32C146.831 28.32 146.231 28.504 145.743 28.872C145.263 29.232 144.903 29.748 144.663 30.42C144.423 31.084 144.303 31.872 144.303 32.784C144.303 33.592 144.411 34.336 144.627 35.016C144.843 35.696 145.187 36.24 145.659 36.648C146.139 37.056 146.767 37.26 147.543 37.26ZM156.084 39V26.592H158.544V29.136C158.752 28.528 159.04 28.02 159.408 27.612C159.784 27.196 160.22 26.884 160.716 26.676C161.212 26.46 161.736 26.352 162.288 26.352C162.456 26.352 162.616 26.364 162.768 26.388C162.92 26.404 163.04 26.436 163.128 26.484V28.956C163.024 28.908 162.888 28.876 162.72 28.86C162.56 28.844 162.42 28.832 162.3 28.824C161.756 28.784 161.26 28.812 160.812 28.908C160.364 29.004 159.976 29.164 159.648 29.388C159.328 29.612 159.08 29.904 158.904 30.264C158.736 30.624 158.652 31.048 158.652 31.536V39H156.084ZM165.659 39V26.592H168.131V39H165.659ZM165.599 24.192V21.66H168.179V24.192H165.599ZM175.21 39.24C174.41 39.24 173.698 39.096 173.074 38.808C172.458 38.52 171.974 38.104 171.622 37.56C171.27 37.016 171.094 36.36 171.094 35.592C171.094 34.216 171.578 33.188 172.546 32.508C173.522 31.828 175.082 31.468 177.226 31.428L179.266 31.368V30.468C179.266 29.756 179.054 29.196 178.63 28.788C178.206 28.38 177.55 28.18 176.662 28.188C176.006 28.188 175.418 28.34 174.898 28.644C174.378 28.948 174.038 29.448 173.878 30.144H171.658C171.706 29.32 171.942 28.628 172.366 28.068C172.798 27.5 173.39 27.072 174.142 26.784C174.894 26.496 175.774 26.352 176.782 26.352C177.918 26.352 178.85 26.508 179.578 26.82C180.306 27.124 180.846 27.572 181.198 28.164C181.558 28.756 181.738 29.476 181.738 30.324V39H179.554L179.362 36.72C178.898 37.672 178.31 38.332 177.598 38.7C176.886 39.06 176.09 39.24 175.21 39.24ZM176.014 37.452C176.406 37.452 176.794 37.384 177.178 37.248C177.562 37.104 177.91 36.912 178.222 36.672C178.534 36.424 178.782 36.148 178.966 35.844C179.158 35.54 179.258 35.228 179.266 34.908V32.856L177.586 32.892C176.73 32.9 176.002 32.988 175.402 33.156C174.81 33.324 174.354 33.584 174.034 33.936C173.722 34.288 173.566 34.756 173.566 35.34C173.566 36.004 173.794 36.524 174.25 36.9C174.714 37.268 175.302 37.452 176.014 37.452ZM189.532 39.24C188.668 39.24 187.856 39.104 187.096 38.832C186.344 38.56 185.712 38.132 185.2 37.548C184.696 36.964 184.38 36.216 184.252 35.304H186.544C186.648 35.776 186.844 36.168 187.132 36.48C187.428 36.784 187.78 37.012 188.188 37.164C188.604 37.308 189.048 37.38 189.52 37.38C190.304 37.38 190.94 37.24 191.428 36.96C191.916 36.672 192.16 36.232 192.16 35.64C192.16 35.216 192.028 34.876 191.764 34.62C191.5 34.364 191.088 34.176 190.528 34.056L188.056 33.468C187.032 33.228 186.212 32.848 185.596 32.328C184.98 31.8 184.668 31.064 184.66 30.12C184.66 29.392 184.84 28.744 185.2 28.176C185.568 27.608 186.112 27.164 186.832 26.844C187.56 26.516 188.456 26.352 189.52 26.352C190.92 26.352 192.044 26.664 192.892 27.288C193.748 27.912 194.188 28.816 194.212 30H191.992C191.912 29.432 191.652 28.988 191.212 28.668C190.78 28.34 190.208 28.176 189.496 28.176C188.76 28.176 188.156 28.324 187.684 28.62C187.212 28.908 186.976 29.352 186.976 29.952C186.976 30.36 187.148 30.684 187.492 30.924C187.844 31.156 188.36 31.348 189.04 31.5L191.392 32.088C192 32.248 192.5 32.46 192.892 32.724C193.284 32.98 193.592 33.264 193.816 33.576C194.04 33.888 194.196 34.212 194.284 34.548C194.38 34.884 194.428 35.2 194.428 35.496C194.428 36.28 194.228 36.952 193.828 37.512C193.436 38.064 192.876 38.492 192.148 38.796C191.42 39.092 190.548 39.24 189.532 39.24Z" fill="#191C1F"/>
<path d="M48.9729 25.449L38.5988 35.8232L28.2246 25.449" stroke="#191C1F" stroke-width="1.5" stroke-linecap="round" stroke-linejoin="round"/>
</svg>
