<svg width="240" height="60" viewBox="0 0 240 60" fill="none" xmlns="http://www.w3.org/2000/svg">
<rect width="240" height="60" fill="#F2F4F5"/>
<path d="M7 43H25" stroke="#191C1F" stroke-width="1.5" stroke-linecap="round" stroke-linejoin="round"/>
<path d="M26 27C26 36 16 43 16 43C16 43 6 36 6 27C6 24.3478 7.05357 21.8043 8.92893 19.9289C10.8043 18.0536 13.3478 17 16 17C18.6522 17 21.1957 18.0536 23.0711 19.9289C24.9464 21.8043 26 24.3478 26 27V27Z" stroke="#191C1F" stroke-width="1.5" stroke-linecap="round" stroke-linejoin="round"/>
<path d="M16 31C18.2091 31 20 29.2091 20 27C20 24.7909 18.2091 23 16 23C13.7909 23 12 24.7909 12 27C12 29.2091 13.7909 31 16 31Z" stroke="#191C1F" stroke-width="1.5" stroke-linecap="round" stroke-linejoin="round"/>
<path d="M42.196 39V21.648H53.404L53.392 23.88H44.776V29.148H52.468V31.344H44.764V36.732L53.608 36.744V39H42.196ZM59.8188 39.168C59.0828 39.168 58.4908 39.072 58.0428 38.88C57.6028 38.688 57.2668 38.432 57.0348 38.112C56.8028 37.784 56.6468 37.416 56.5668 37.008C56.4948 36.592 56.4588 36.164 56.4588 35.724V21.168H58.9908V35.46C58.9908 36.036 59.1028 36.476 59.3268 36.78C59.5588 37.084 59.9108 37.256 60.3828 37.296L61.0308 37.32V38.952C60.8308 39.016 60.6228 39.068 60.4068 39.108C60.1988 39.148 60.0028 39.168 59.8188 39.168ZM63.8313 39V26.592H66.3033V39H63.8313ZM63.7713 24.192V21.66H66.3513V24.192H63.7713ZM75.1827 43.104C73.1667 43.104 71.6067 42.82 70.5027 42.252C69.3987 41.692 68.8467 40.908 68.8467 39.9C68.8467 39.46 68.9507 39.088 69.1587 38.784C69.3747 38.472 69.6267 38.216 69.9147 38.016C70.2107 37.816 70.4827 37.66 70.7307 37.548C70.9787 37.428 71.1387 37.344 71.2107 37.296C71.0747 37.216 70.8987 37.116 70.6827 36.996C70.4747 36.868 70.2867 36.7 70.1187 36.492C69.9507 36.276 69.8667 35.996 69.8667 35.652C69.8667 35.252 70.0547 34.884 70.4307 34.548C70.8147 34.204 71.3907 33.952 72.1587 33.792C71.4067 33.424 70.8227 32.928 70.4067 32.304C69.9907 31.68 69.7827 31.016 69.7827 30.312C69.7827 29.504 70.0107 28.808 70.4667 28.224C70.9227 27.632 71.5627 27.18 72.3867 26.868C73.2187 26.556 74.1947 26.4 75.3147 26.4C76.1387 26.4 76.8227 26.492 77.3667 26.676C77.9187 26.86 78.4267 27.116 78.8907 27.444C79.0427 27.388 79.2587 27.304 79.5387 27.192C79.8267 27.072 80.1387 26.944 80.4747 26.808C80.8107 26.672 81.1307 26.54 81.4347 26.412C81.7467 26.284 81.9987 26.18 82.1907 26.1L82.1787 28.332L80.0187 28.728C80.1307 28.968 80.2187 29.232 80.2827 29.52C80.3547 29.808 80.3907 30.072 80.3907 30.312C80.3907 31.032 80.1947 31.696 79.8027 32.304C79.4107 32.904 78.8227 33.384 78.0387 33.744C77.2547 34.104 76.2747 34.284 75.0987 34.284C74.9867 34.284 74.8427 34.284 74.6667 34.284C74.4907 34.276 74.3427 34.264 74.2227 34.248C73.4787 34.272 72.9667 34.36 72.6867 34.512C72.4067 34.656 72.2667 34.816 72.2667 34.992C72.2667 35.216 72.4467 35.368 72.8067 35.448C73.1667 35.528 73.7587 35.596 74.5827 35.652C74.8787 35.676 75.2547 35.7 75.7107 35.724C76.1747 35.748 76.6867 35.78 77.2467 35.82C78.6067 35.9 79.6427 36.24 80.3547 36.84C81.0747 37.44 81.4347 38.236 81.4347 39.228C81.4347 40.364 80.9187 41.292 79.8867 42.012C78.8547 42.74 77.2867 43.104 75.1827 43.104ZM75.6267 41.532C76.7227 41.532 77.5507 41.372 78.1107 41.052C78.6707 40.74 78.9507 40.272 78.9507 39.648C78.9507 39.184 78.7707 38.804 78.4107 38.508C78.0507 38.212 77.5107 38.04 76.7907 37.992L73.4787 37.776C73.1507 37.76 72.8227 37.832 72.4947 37.992C72.1747 38.152 71.9107 38.376 71.7027 38.664C71.4947 38.944 71.3907 39.256 71.3907 39.6C71.3907 40.224 71.7347 40.7 72.4227 41.028C73.1107 41.364 74.1787 41.532 75.6267 41.532ZM75.1707 32.712C76.0027 32.712 76.6707 32.512 77.1747 32.112C77.6867 31.704 77.9427 31.12 77.9427 30.36C77.9427 29.576 77.6867 28.972 77.1747 28.548C76.6707 28.116 76.0027 27.9 75.1707 27.9C74.3307 27.9 73.6507 28.116 73.1307 28.548C72.6187 28.98 72.3627 29.584 72.3627 30.36C72.3627 31.096 72.6067 31.672 73.0947 32.088C73.5907 32.504 74.2827 32.712 75.1707 32.712ZM89.7723 39.24C88.5963 39.24 87.5603 38.988 86.6643 38.484C85.7683 37.972 85.0683 37.244 84.5643 36.3C84.0683 35.356 83.8203 34.232 83.8203 32.928C83.8203 31.64 84.0483 30.504 84.5043 29.52C84.9603 28.528 85.6203 27.752 86.4843 27.192C87.3483 26.632 88.3883 26.352 89.6043 26.352C90.7963 26.352 91.8043 26.608 92.6283 27.12C93.4523 27.632 94.0763 28.352 94.5003 29.28C94.9243 30.2 95.1363 31.288 95.1363 32.544V33.396H86.4003C86.3923 34.14 86.5123 34.808 86.7603 35.4C87.0083 35.984 87.3763 36.448 87.8643 36.792C88.3603 37.128 88.9763 37.296 89.7122 37.296C90.4563 37.296 91.0963 37.128 91.6323 36.792C92.1763 36.456 92.5323 35.956 92.7003 35.292H95.0763C94.9323 36.14 94.5923 36.86 94.0563 37.452C93.5203 38.044 92.8763 38.492 92.1243 38.796C91.3723 39.092 90.5883 39.24 89.7723 39.24ZM86.4003 31.728H92.6883C92.6883 31.08 92.5763 30.492 92.3523 29.964C92.1283 29.428 91.7843 29.008 91.3203 28.704C90.8643 28.392 90.2883 28.236 89.5923 28.236C88.8803 28.236 88.2883 28.408 87.8163 28.752C87.3443 29.096 86.9883 29.536 86.7483 30.072C86.5163 30.608 86.4003 31.16 86.4003 31.728ZM108.198 39.24C107.574 39.232 106.978 39.14 106.41 38.964C105.842 38.788 105.334 38.524 104.886 38.172C104.446 37.82 104.094 37.384 103.83 36.864C103.574 36.344 103.446 35.74 103.446 35.052V26.592H106.026V34.776C106.026 35.52 106.258 36.124 106.722 36.588C107.186 37.052 107.886 37.284 108.822 37.284C109.67 37.284 110.35 37.064 110.862 36.624C111.374 36.176 111.63 35.524 111.63 34.668V26.592H114.186V39H112.194L111.906 36.6C111.762 37.248 111.502 37.768 111.126 38.16C110.758 38.544 110.318 38.824 109.806 39C109.302 39.168 108.766 39.248 108.198 39.24ZM117.818 39V26.592H120.326V28.38C120.526 28.044 120.794 27.728 121.13 27.432C121.474 27.136 121.894 26.896 122.39 26.712C122.894 26.528 123.474 26.436 124.13 26.436C124.906 26.436 125.622 26.592 126.278 26.904C126.942 27.208 127.474 27.688 127.874 28.344C128.274 28.992 128.474 29.832 128.474 30.864V39H125.906V31.14C125.906 30.252 125.666 29.592 125.186 29.16C124.714 28.728 124.102 28.512 123.35 28.512C122.846 28.512 122.366 28.596 121.91 28.764C121.454 28.932 121.086 29.188 120.806 29.532C120.526 29.868 120.386 30.292 120.386 30.804V39H117.818ZM135.257 39.24C134.457 39.24 133.745 39.096 133.121 38.808C132.505 38.52 132.021 38.104 131.669 37.56C131.317 37.016 131.141 36.36 131.141 35.592C131.141 34.216 131.625 33.188 132.593 32.508C133.569 31.828 135.129 31.468 137.273 31.428L139.313 31.368V30.468C139.313 29.756 139.101 29.196 138.677 28.788C138.253 28.38 137.597 28.18 136.709 28.188C136.053 28.188 135.465 28.34 134.945 28.644C134.425 28.948 134.085 29.448 133.925 30.144H131.705C131.753 29.32 131.989 28.628 132.413 28.068C132.845 27.5 133.437 27.072 134.189 26.784C134.941 26.496 135.821 26.352 136.829 26.352C137.965 26.352 138.897 26.508 139.625 26.82C140.353 27.124 140.893 27.572 141.245 28.164C141.605 28.756 141.785 29.476 141.785 30.324V39H139.601L139.409 36.72C138.945 37.672 138.357 38.332 137.645 38.7C136.933 39.06 136.137 39.24 135.257 39.24ZM136.061 37.452C136.453 37.452 136.841 37.384 137.225 37.248C137.609 37.104 137.957 36.912 138.269 36.672C138.581 36.424 138.829 36.148 139.013 35.844C139.205 35.54 139.305 35.228 139.313 34.908V32.856L137.633 32.892C136.777 32.9 136.049 32.988 135.449 33.156C134.857 33.324 134.401 33.584 134.081 33.936C133.769 34.288 133.613 34.756 133.613 35.34C133.613 36.004 133.841 36.524 134.297 36.9C134.761 37.268 135.349 37.452 136.061 37.452ZM155.637 39.24C154.517 39.24 153.521 38.996 152.649 38.508C151.777 38.012 151.093 37.288 150.597 36.336C150.101 35.376 149.853 34.212 149.853 32.844C149.853 31.556 150.081 30.424 150.537 29.448C151.001 28.472 151.665 27.712 152.529 27.168C153.393 26.624 154.429 26.352 155.637 26.352C156.573 26.352 157.401 26.536 158.121 26.904C158.841 27.264 159.425 27.768 159.873 28.416C160.329 29.064 160.605 29.82 160.701 30.684H158.469C158.405 30.276 158.253 29.896 158.013 29.544C157.773 29.192 157.457 28.912 157.065 28.704C156.673 28.488 156.205 28.38 155.661 28.38C154.661 28.38 153.849 28.744 153.225 29.472C152.601 30.2 152.289 31.316 152.289 32.82C152.289 34.196 152.581 35.292 153.165 36.108C153.749 36.924 154.593 37.332 155.697 37.332C156.241 37.332 156.709 37.22 157.101 36.996C157.493 36.772 157.805 36.484 158.037 36.132C158.277 35.78 158.429 35.416 158.493 35.04H160.677C160.581 35.872 160.305 36.604 159.849 37.236C159.401 37.868 158.817 38.36 158.097 38.712C157.377 39.064 156.557 39.24 155.637 39.24ZM163.534 39V26.592H166.006V39H163.534ZM163.474 24.192V21.66H166.054V24.192H163.474ZM174.105 39.24C173.481 39.232 172.885 39.14 172.317 38.964C171.749 38.788 171.241 38.524 170.793 38.172C170.353 37.82 170.001 37.384 169.737 36.864C169.481 36.344 169.353 35.74 169.353 35.052V26.592H171.933V34.776C171.933 35.52 172.165 36.124 172.629 36.588C173.093 37.052 173.793 37.284 174.729 37.284C175.577 37.284 176.257 37.064 176.769 36.624C177.281 36.176 177.537 35.524 177.537 34.668V26.592H180.093V39H178.101L177.813 36.6C177.669 37.248 177.409 37.768 177.033 38.16C176.665 38.544 176.225 38.824 175.713 39C175.209 39.168 174.673 39.248 174.105 39.24ZM188.156 39.24C186.532 39.24 185.248 38.684 184.304 37.572C183.368 36.452 182.9 34.84 182.9 32.736C182.9 31.448 183.088 30.328 183.464 29.376C183.848 28.416 184.412 27.672 185.156 27.144C185.9 26.616 186.828 26.352 187.94 26.352C188.492 26.352 188.988 26.42 189.428 26.556C189.868 26.692 190.252 26.868 190.58 27.084C190.908 27.3 191.184 27.532 191.408 27.78C191.632 28.028 191.8 28.26 191.912 28.476V21.168H194.504V39H192.572L192.284 36.456C192.196 36.728 192.06 37.024 191.876 37.344C191.7 37.664 191.452 37.968 191.132 38.256C190.82 38.544 190.42 38.78 189.932 38.964C189.444 39.148 188.852 39.24 188.156 39.24ZM188.648 37.308C189.8 37.308 190.632 36.948 191.144 36.228C191.656 35.5 191.912 34.308 191.912 32.652C191.904 31.716 191.788 30.924 191.564 30.276C191.348 29.628 191.004 29.14 190.532 28.812C190.068 28.476 189.456 28.308 188.696 28.308C187.744 28.308 186.964 28.652 186.356 29.34C185.756 30.02 185.456 31.124 185.456 32.652C185.456 34.156 185.728 35.308 186.272 36.108C186.824 36.908 187.616 37.308 188.648 37.308ZM201.514 39.24C200.714 39.24 200.002 39.096 199.378 38.808C198.762 38.52 198.278 38.104 197.926 37.56C197.574 37.016 197.398 36.36 197.398 35.592C197.398 34.216 197.882 33.188 198.85 32.508C199.826 31.828 201.386 31.468 203.53 31.428L205.57 31.368V30.468C205.57 29.756 205.358 29.196 204.934 28.788C204.51 28.38 203.854 28.18 202.966 28.188C202.31 28.188 201.722 28.34 201.202 28.644C200.682 28.948 200.342 29.448 200.182 30.144H197.962C198.01 29.32 198.246 28.628 198.67 28.068C199.102 27.5 199.694 27.072 200.446 26.784C201.198 26.496 202.078 26.352 203.086 26.352C204.222 26.352 205.154 26.508 205.882 26.82C206.61 27.124 207.15 27.572 207.502 28.164C207.862 28.756 208.042 29.476 208.042 30.324V39H205.858L205.666 36.72C205.202 37.672 204.614 38.332 203.902 38.7C203.19 39.06 202.394 39.24 201.514 39.24ZM202.318 37.452C202.71 37.452 203.098 37.384 203.482 37.248C203.866 37.104 204.214 36.912 204.526 36.672C204.838 36.424 205.086 36.148 205.27 35.844C205.462 35.54 205.562 35.228 205.57 34.908V32.856L203.89 32.892C203.034 32.9 202.306 32.988 201.706 33.156C201.114 33.324 200.658 33.584 200.338 33.936C200.026 34.288 199.87 34.756 199.87 35.34C199.87 36.004 200.098 36.524 200.554 36.9C201.018 37.268 201.606 37.452 202.318 37.452ZM215.906 39.24C214.282 39.24 212.998 38.684 212.054 37.572C211.118 36.452 210.65 34.84 210.65 32.736C210.65 31.448 210.838 30.328 211.214 29.376C211.598 28.416 212.162 27.672 212.906 27.144C213.65 26.616 214.578 26.352 215.69 26.352C216.242 26.352 216.738 26.42 217.178 26.556C217.618 26.692 218.002 26.868 218.33 27.084C218.658 27.3 218.934 27.532 219.158 27.78C219.382 28.028 219.55 28.26 219.662 28.476V21.168H222.254V39H220.322L220.034 36.456C219.946 36.728 219.81 37.024 219.626 37.344C219.45 37.664 219.202 37.968 218.882 38.256C218.57 38.544 218.17 38.78 217.682 38.964C217.194 39.148 216.602 39.24 215.906 39.24ZM216.398 37.308C217.55 37.308 218.382 36.948 218.894 36.228C219.406 35.5 219.662 34.308 219.662 32.652C219.654 31.716 219.538 30.924 219.314 30.276C219.098 29.628 218.754 29.14 218.282 28.812C217.818 28.476 217.206 28.308 216.446 28.308C215.494 28.308 214.714 28.652 214.106 29.34C213.506 30.02 213.206 31.124 213.206 32.652C213.206 34.156 213.478 35.308 214.022 36.108C214.574 36.908 215.366 37.308 216.398 37.308Z" fill="#191C1F"/>
</svg>
