<svg width="240" height="60" viewBox="0 0 240 60" fill="none" xmlns="http://www.w3.org/2000/svg">
<rect width="240" height="60" fill="#F2F4F5"/>
<path d="M34.7124 40.4875L44.8374 30.3625C47.3249 27.8625 47.6874 23.775 45.3374 21.1625C44.7481 20.5041 44.0307 19.9729 43.2291 19.6011C42.4274 19.2294 41.5584 19.025 40.6752 19.0004C39.7919 18.9758 38.9129 19.1316 38.0918 19.4582C37.2708 19.7848 36.525 20.2754 35.8999 20.9L33.9999 22.8125L32.3624 21.1625C29.8624 18.675 25.7749 18.3125 23.1624 20.6625C22.5041 21.2519 21.9728 21.9693 21.601 22.7709C21.2293 23.5725 21.0249 24.4415 21.0003 25.3248C20.9757 26.208 21.1315 27.0871 21.4581 27.9081C21.7848 28.7291 22.2753 29.475 22.8999 30.1L33.2874 40.4875C33.477 40.6753 33.7331 40.7806 33.9999 40.7806C34.2668 40.7806 34.5228 40.6753 34.7124 40.4875V40.4875Z" stroke="#191C1F" stroke-width="1.5" stroke-linecap="round" stroke-linejoin="round"/>
<path d="M83.196 39V21.648H94.284L94.272 23.856H85.812V29.22H93.336V31.404H85.812V39H83.196ZM100.413 39.24C99.6128 39.24 98.9008 39.096 98.2768 38.808C97.6608 38.52 97.1768 38.104 96.8248 37.56C96.4728 37.016 96.2968 36.36 96.2968 35.592C96.2968 34.216 96.7808 33.188 97.7488 32.508C98.7248 31.828 100.285 31.468 102.429 31.428L104.469 31.368V30.468C104.469 29.756 104.257 29.196 103.833 28.788C103.409 28.38 102.753 28.18 101.865 28.188C101.209 28.188 100.621 28.34 100.101 28.644C99.5808 28.948 99.2408 29.448 99.0808 30.144H96.8608C96.9088 29.32 97.1448 28.628 97.5688 28.068C98.0008 27.5 98.5928 27.072 99.3448 26.784C100.097 26.496 100.977 26.352 101.985 26.352C103.121 26.352 104.053 26.508 104.781 26.82C105.509 27.124 106.049 27.572 106.401 28.164C106.761 28.756 106.941 29.476 106.941 30.324V39H104.757L104.565 36.72C104.101 37.672 103.513 38.332 102.801 38.7C102.089 39.06 101.293 39.24 100.413 39.24ZM101.217 37.452C101.609 37.452 101.997 37.384 102.381 37.248C102.765 37.104 103.113 36.912 103.425 36.672C103.737 36.424 103.985 36.148 104.169 35.844C104.361 35.54 104.461 35.228 104.469 34.908V32.856L102.789 32.892C101.933 32.9 101.205 32.988 100.605 33.156C100.013 33.324 99.5568 33.584 99.2368 33.936C98.9248 34.288 98.7688 34.756 98.7688 35.34C98.7688 36.004 98.9968 36.524 99.4528 36.9C99.9168 37.268 100.505 37.452 101.217 37.452ZM113.134 39L108.598 26.592H110.974L114.118 35.748H114.286L117.43 26.592H119.806L115.294 39H113.134ZM126.851 39.24C125.691 39.24 124.679 38.992 123.815 38.496C122.951 37.992 122.279 37.264 121.799 36.312C121.319 35.36 121.079 34.208 121.079 32.856C121.079 31.552 121.307 30.412 121.763 29.436C122.219 28.46 122.875 27.704 123.731 27.168C124.595 26.624 125.639 26.352 126.863 26.352C128.031 26.352 129.043 26.608 129.899 27.12C130.755 27.624 131.419 28.364 131.891 29.34C132.363 30.308 132.599 31.48 132.599 32.856C132.599 34.112 132.379 35.22 131.939 36.18C131.499 37.14 130.851 37.892 129.995 38.436C129.147 38.972 128.099 39.24 126.851 39.24ZM126.863 37.26C127.575 37.26 128.167 37.076 128.639 36.708C129.111 36.332 129.467 35.808 129.707 35.136C129.947 34.456 130.067 33.672 130.067 32.784C130.067 31.96 129.959 31.212 129.743 30.54C129.535 29.86 129.195 29.32 128.723 28.92C128.259 28.52 127.639 28.32 126.863 28.32C126.151 28.32 125.551 28.504 125.063 28.872C124.583 29.232 124.223 29.748 123.983 30.42C123.743 31.084 123.623 31.872 123.623 32.784C123.623 33.592 123.731 34.336 123.947 35.016C124.163 35.696 124.507 36.24 124.979 36.648C125.459 37.056 126.087 37.26 126.863 37.26ZM135.404 39V26.592H137.864V29.136C138.072 28.528 138.36 28.02 138.728 27.612C139.104 27.196 139.54 26.884 140.036 26.676C140.532 26.46 141.056 26.352 141.608 26.352C141.776 26.352 141.936 26.364 142.088 26.388C142.24 26.404 142.36 26.436 142.448 26.484V28.956C142.344 28.908 142.208 28.876 142.04 28.86C141.88 28.844 141.74 28.832 141.62 28.824C141.076 28.784 140.58 28.812 140.132 28.908C139.684 29.004 139.296 29.164 138.968 29.388C138.648 29.612 138.4 29.904 138.224 30.264C138.056 30.624 137.972 31.048 137.972 31.536V39H135.404ZM144.98 39V26.592H147.452V39H144.98ZM144.92 24.192V21.66H147.5V24.192H144.92ZM155.754 39.084C154.834 39.084 154.122 38.96 153.618 38.712C153.114 38.464 152.762 38.108 152.562 37.644C152.362 37.172 152.262 36.604 152.262 35.94V28.44H150.246V26.592H152.346L152.97 22.944H154.842V26.58H157.626V28.44H154.842L154.854 35.844C154.854 36.252 154.894 36.552 154.974 36.744C155.062 36.928 155.206 37.048 155.406 37.104C155.614 37.152 155.894 37.176 156.246 37.176H157.686V38.844C157.534 38.908 157.298 38.964 156.978 39.012C156.666 39.06 156.258 39.084 155.754 39.084ZM165.266 39.24C164.106 39.24 163.094 38.992 162.23 38.496C161.366 37.992 160.694 37.264 160.214 36.312C159.734 35.36 159.494 34.208 159.494 32.856C159.494 31.552 159.722 30.412 160.178 29.436C160.634 28.46 161.29 27.704 162.146 27.168C163.01 26.624 164.054 26.352 165.278 26.352C166.446 26.352 167.458 26.608 168.314 27.12C169.17 27.624 169.834 28.364 170.306 29.34C170.778 30.308 171.014 31.48 171.014 32.856C171.014 34.112 170.794 35.22 170.354 36.18C169.914 37.14 169.266 37.892 168.41 38.436C167.562 38.972 166.514 39.24 165.266 39.24ZM165.278 37.26C165.99 37.26 166.582 37.076 167.054 36.708C167.526 36.332 167.882 35.808 168.122 35.136C168.362 34.456 168.482 33.672 168.482 32.784C168.482 31.96 168.374 31.212 168.158 30.54C167.95 29.86 167.61 29.32 167.138 28.92C166.674 28.52 166.054 28.32 165.278 28.32C164.566 28.32 163.966 28.504 163.478 28.872C162.998 29.232 162.638 29.748 162.398 30.42C162.158 31.084 162.038 31.872 162.038 32.784C162.038 33.592 162.146 34.336 162.362 35.016C162.578 35.696 162.922 36.24 163.394 36.648C163.874 37.056 164.502 37.26 165.278 37.26ZM178.368 39.24C177.504 39.24 176.692 39.104 175.932 38.832C175.18 38.56 174.548 38.132 174.036 37.548C173.532 36.964 173.216 36.216 173.088 35.304H175.38C175.484 35.776 175.68 36.168 175.968 36.48C176.264 36.784 176.616 37.012 177.024 37.164C177.44 37.308 177.884 37.38 178.356 37.38C179.14 37.38 179.776 37.24 180.264 36.96C180.752 36.672 180.996 36.232 180.996 35.64C180.996 35.216 180.864 34.876 180.6 34.62C180.336 34.364 179.924 34.176 179.364 34.056L176.892 33.468C175.868 33.228 175.048 32.848 174.432 32.328C173.816 31.8 173.504 31.064 173.496 30.12C173.496 29.392 173.676 28.744 174.036 28.176C174.404 27.608 174.948 27.164 175.668 26.844C176.396 26.516 177.292 26.352 178.356 26.352C179.756 26.352 180.88 26.664 181.728 27.288C182.584 27.912 183.024 28.816 183.048 30H180.828C180.748 29.432 180.488 28.988 180.048 28.668C179.616 28.34 179.044 28.176 178.332 28.176C177.596 28.176 176.992 28.324 176.52 28.62C176.048 28.908 175.812 29.352 175.812 29.952C175.812 30.36 175.984 30.684 176.328 30.924C176.68 31.156 177.196 31.348 177.876 31.5L180.228 32.088C180.836 32.248 181.336 32.46 181.728 32.724C182.12 32.98 182.428 33.264 182.652 33.576C182.876 33.888 183.032 34.212 183.12 34.548C183.216 34.884 183.264 35.2 183.264 35.496C183.264 36.28 183.064 36.952 182.664 37.512C182.272 38.064 181.712 38.492 180.984 38.796C180.256 39.092 179.384 39.24 178.368 39.24Z" fill="#191C1F"/>
</svg>
