<svg width="162" height="70" viewBox="0 0 162 70" fill="none" xmlns="http://www.w3.org/2000/svg">
<rect opacity="0.1" x="0.5" y="0.5" width="161" height="69" fill="#D9D9D9" stroke="black"/>
<path opacity="0.2" d="M36.0001 15.5C32.0544 15.4988 28.2011 16.6947 24.9494 18.9296C21.6976 21.1645 19.2003 24.3333 17.7874 28.0174C16.3745 31.7015 16.1125 35.7275 17.0359 39.5637C17.9594 43.3998 20.0248 46.8656 22.9595 49.5031C24.1823 47.0951 26.0479 45.0728 28.3497 43.6602C30.6515 42.2476 33.2994 41.4999 36.0001 41.5C34.3931 41.5 32.8222 41.0235 31.4861 40.1307C30.1499 39.2379 29.1085 37.969 28.4936 36.4843C27.8786 34.9997 27.7177 33.366 28.0312 31.7899C28.3447 30.2138 29.1185 28.7661 30.2548 27.6298C31.3911 26.4935 32.8389 25.7196 34.415 25.4061C35.9911 25.0926 37.6247 25.2535 39.1094 25.8685C40.594 26.4834 41.863 27.5248 42.7558 28.861C43.6486 30.1971 44.1251 31.768 44.1251 33.375C44.1251 35.5299 43.2691 37.5965 41.7453 39.1202C40.2216 40.644 38.155 41.5 36.0001 41.5C38.7008 41.4999 41.3487 42.2476 43.6505 43.6602C45.9522 45.0728 47.8179 47.0951 49.0407 49.5031C51.9753 46.8656 54.0408 43.3998 54.9642 39.5637C55.8877 35.7275 55.6256 31.7015 54.2127 28.0174C52.7999 24.3333 50.3026 21.1645 47.0508 18.9296C43.7991 16.6947 39.9458 15.4988 36.0001 15.5Z" fill="white"/>
<path d="M36 54.5C46.7696 54.5 55.5 45.7696 55.5 35C55.5 24.2304 46.7696 15.5 36 15.5C25.2304 15.5 16.5 24.2304 16.5 35C16.5 45.7696 25.2304 54.5 36 54.5Z" stroke="white" stroke-width="1.5" stroke-linecap="round" stroke-linejoin="round"/>
<path d="M36 41.5C40.4873 41.5 44.125 37.8623 44.125 33.375C44.125 28.8877 40.4873 25.25 36 25.25C31.5127 25.25 27.875 28.8877 27.875 33.375C27.875 37.8623 31.5127 41.5 36 41.5Z" stroke="white" stroke-width="1.5" stroke-linecap="round" stroke-linejoin="round"/>
<path d="M22.9595 49.5031C24.1821 47.0949 26.0477 45.0723 28.3495 43.6595C30.6513 42.2466 33.2993 41.4988 36.0001 41.4988C38.7009 41.4988 41.3489 42.2466 43.6507 43.6595C45.9525 45.0723 47.8181 47.0949 49.0407 49.5031" stroke="white" stroke-width="1.5" stroke-linecap="round" stroke-linejoin="round"/>
<path d="M73.337 40V29.878H74.632V40H73.337ZM77.0358 40V32.762H78.2888V33.812C78.4055 33.6113 78.5665 33.4223 78.7718 33.245C78.9818 33.0677 79.2338 32.9253 79.5278 32.818C79.8265 32.7107 80.1695 32.657 80.5568 32.657C81.0142 32.657 81.4342 32.748 81.8168 32.93C82.2042 33.112 82.5122 33.3967 82.7408 33.784C82.9742 34.1667 83.0908 34.6613 83.0908 35.268V40H81.7958V35.394C81.7958 34.8293 81.6465 34.4117 81.3478 34.141C81.0538 33.8657 80.6712 33.728 80.1998 33.728C79.8732 33.728 79.5675 33.7817 79.2828 33.889C78.9982 33.9917 78.7672 34.1503 78.5898 34.365C78.4125 34.575 78.3238 34.841 78.3238 35.163V40H77.0358ZM88.1749 42.394C87.0409 42.394 86.1566 42.2283 85.5219 41.897C84.8873 41.5703 84.5699 41.1013 84.5699 40.49C84.5699 40.2287 84.6306 40.007 84.7519 39.825C84.8733 39.6383 85.0179 39.4843 85.1859 39.363C85.3539 39.2417 85.5103 39.146 85.6549 39.076C85.7996 39.0013 85.8953 38.9477 85.9419 38.915C85.8579 38.8683 85.7576 38.81 85.6409 38.74C85.5243 38.67 85.4193 38.5767 85.3259 38.46C85.2373 38.3433 85.1929 38.1917 85.1929 38.005C85.1929 37.7763 85.3003 37.5663 85.5149 37.375C85.7296 37.1837 86.0493 37.0413 86.4739 36.948C86.0493 36.7333 85.7179 36.4487 85.4799 36.094C85.2419 35.7393 85.1229 35.3543 85.1229 34.939C85.1229 34.4723 85.2489 34.0663 85.5009 33.721C85.7529 33.3757 86.1146 33.112 86.5859 32.93C87.0573 32.7433 87.6196 32.65 88.2729 32.65C88.7443 32.65 89.1386 32.706 89.4559 32.818C89.7779 32.9253 90.0766 33.0793 90.3519 33.28C90.4266 33.2473 90.5456 33.1983 90.7089 33.133C90.8723 33.063 91.0496 32.9883 91.2409 32.909C91.4369 32.8297 91.6189 32.755 91.7869 32.685C91.9596 32.6103 92.0973 32.5543 92.1999 32.517L92.1929 33.714L90.9259 33.952C91.0006 34.1013 91.0589 34.2647 91.1009 34.442C91.1429 34.6193 91.1639 34.785 91.1639 34.939C91.1639 35.3637 91.0519 35.7487 90.8279 36.094C90.6086 36.4393 90.2749 36.7147 89.8269 36.92C89.3789 37.1253 88.8189 37.228 88.1469 37.228C88.0909 37.228 88.0186 37.228 87.9299 37.228C87.8459 37.2233 87.7736 37.2187 87.7129 37.214C87.2183 37.228 86.8776 37.284 86.6909 37.382C86.5089 37.4753 86.4179 37.5803 86.4179 37.697C86.4179 37.8323 86.5229 37.9257 86.7329 37.977C86.9429 38.0283 87.2976 38.0727 87.7969 38.11C87.9789 38.1193 88.2029 38.131 88.4689 38.145C88.7396 38.159 89.0406 38.1777 89.3719 38.201C90.1279 38.2477 90.7113 38.4413 91.1219 38.782C91.5326 39.1227 91.7379 39.5823 91.7379 40.161C91.7379 40.819 91.4439 41.3557 90.8559 41.771C90.2726 42.1863 89.3789 42.394 88.1749 42.394ZM88.4059 41.561C89.0733 41.561 89.5843 41.4607 89.9389 41.26C90.2983 41.0593 90.4779 40.756 90.4779 40.35C90.4779 40.0607 90.3683 39.825 90.1489 39.643C89.9296 39.4563 89.5983 39.349 89.1549 39.321L87.1249 39.188C86.9429 39.1787 86.7539 39.2253 86.5579 39.328C86.3619 39.426 86.1963 39.5637 86.0609 39.741C85.9256 39.9183 85.8579 40.119 85.8579 40.343C85.8579 40.7257 86.0656 41.0243 86.4809 41.239C86.8963 41.4537 87.5379 41.561 88.4059 41.561ZM88.1889 36.395C88.7069 36.395 89.1246 36.2737 89.4419 36.031C89.7639 35.7883 89.9249 35.429 89.9249 34.953C89.9249 34.463 89.7639 34.0897 89.4419 33.833C89.1246 33.5763 88.7069 33.448 88.1889 33.448C87.6569 33.448 87.2276 33.5787 86.9009 33.84C86.5789 34.0967 86.4179 34.4677 86.4179 34.953C86.4179 35.4103 86.5719 35.765 86.8799 36.017C87.1926 36.269 87.6289 36.395 88.1889 36.395ZM93.8249 40V32.762H95.0569V34.155C95.1782 33.8097 95.3486 33.525 95.5679 33.301C95.7872 33.0723 96.0369 32.902 96.3169 32.79C96.6016 32.678 96.8956 32.622 97.1989 32.622C97.3062 32.622 97.4112 32.629 97.5139 32.643C97.6166 32.657 97.6959 32.6803 97.7519 32.713V33.966C97.6819 33.9333 97.5909 33.9123 97.4789 33.903C97.3716 33.889 97.2806 33.882 97.2059 33.882C96.9166 33.8633 96.6459 33.882 96.3939 33.938C96.1419 33.9893 95.9202 34.0803 95.7289 34.211C95.5376 34.3417 95.3859 34.5143 95.2739 34.729C95.1666 34.939 95.1129 35.1957 95.1129 35.499V40H93.8249ZM102.243 40.14C101.571 40.14 100.979 39.993 100.465 39.699C99.9519 39.405 99.5506 38.9827 99.2613 38.432C98.9719 37.8813 98.8273 37.221 98.8273 36.451C98.8273 35.6903 98.9579 35.023 99.2193 34.449C99.4806 33.875 99.8586 33.427 100.353 33.105C100.853 32.783 101.452 32.622 102.152 32.622C102.834 32.622 103.41 32.769 103.881 33.063C104.353 33.357 104.71 33.7723 104.952 34.309C105.2 34.841 105.323 35.4733 105.323 36.206V36.682H100.136C100.136 37.1393 100.211 37.5547 100.36 37.928C100.514 38.2967 100.745 38.5907 101.053 38.81C101.361 39.0293 101.751 39.139 102.222 39.139C102.684 39.139 103.081 39.0317 103.412 38.817C103.748 38.6023 103.963 38.292 104.056 37.886H105.274C105.19 38.376 104.994 38.789 104.686 39.125C104.383 39.461 104.017 39.7153 103.587 39.888C103.163 40.056 102.715 40.14 102.243 40.14ZM100.143 35.807H104.077C104.077 35.3917 104.007 35.0183 103.867 34.687C103.727 34.351 103.513 34.0873 103.223 33.896C102.939 33.7 102.579 33.602 102.145 33.602C101.693 33.602 101.317 33.7117 101.018 33.931C100.72 34.1457 100.498 34.4233 100.353 34.764C100.209 35.1 100.139 35.4477 100.143 35.807ZM109.677 40.14C109.173 40.14 108.704 40.063 108.27 39.909C107.841 39.7503 107.484 39.5053 107.199 39.174C106.914 38.838 106.737 38.411 106.667 37.893H107.843C107.904 38.1777 108.02 38.4157 108.193 38.607C108.366 38.7937 108.578 38.936 108.83 39.034C109.087 39.1273 109.367 39.174 109.67 39.174C110.16 39.174 110.554 39.083 110.853 38.901C111.152 38.719 111.301 38.439 111.301 38.061C111.301 37.795 111.222 37.5827 111.063 37.424C110.909 37.2607 110.666 37.1417 110.335 37.067L108.837 36.696C108.254 36.556 107.787 36.3367 107.437 36.038C107.092 35.7393 106.917 35.3217 106.912 34.785C106.912 34.3603 107.015 33.987 107.22 33.665C107.425 33.343 107.731 33.0887 108.137 32.902C108.548 32.7153 109.059 32.622 109.67 32.622C110.459 32.622 111.093 32.7993 111.574 33.154C112.055 33.504 112.307 34.0197 112.33 34.701H111.182C111.135 34.3557 110.981 34.0827 110.72 33.882C110.459 33.6767 110.104 33.574 109.656 33.574C109.199 33.574 108.823 33.6673 108.529 33.854C108.24 34.036 108.095 34.3207 108.095 34.708C108.095 34.9647 108.198 35.1677 108.403 35.317C108.613 35.4617 108.916 35.583 109.313 35.681L110.769 36.045C111.1 36.1337 111.376 36.2503 111.595 36.395C111.814 36.5397 111.987 36.7007 112.113 36.878C112.239 37.0553 112.328 37.242 112.379 37.438C112.435 37.6293 112.463 37.8137 112.463 37.991C112.463 38.4343 112.353 38.817 112.134 39.139C111.915 39.4563 111.597 39.7037 111.182 39.881C110.767 40.0537 110.265 40.14 109.677 40.14ZM116.212 40.14C115.741 40.14 115.326 40.0583 114.966 39.895C114.612 39.727 114.332 39.4867 114.126 39.174C113.926 38.8613 113.825 38.4833 113.825 38.04C113.825 37.2373 114.105 36.64 114.665 36.248C115.225 35.856 116.124 35.646 117.36 35.618L118.648 35.583V35.016C118.648 34.5727 118.515 34.2227 118.249 33.966C117.983 33.7047 117.573 33.574 117.017 33.574C116.602 33.5787 116.236 33.6767 115.918 33.868C115.601 34.0593 115.398 34.372 115.309 34.806H114.168C114.196 34.3347 114.327 33.938 114.56 33.616C114.798 33.2893 115.132 33.042 115.561 32.874C115.991 32.706 116.497 32.622 117.08 32.622C117.71 32.622 118.233 32.7107 118.648 32.888C119.068 33.0653 119.381 33.3267 119.586 33.672C119.796 34.0173 119.901 34.442 119.901 34.946V40H118.795L118.697 38.642C118.422 39.2067 118.067 39.5987 117.633 39.818C117.204 40.0327 116.73 40.14 116.212 40.14ZM116.597 39.209C116.845 39.209 117.087 39.1647 117.325 39.076C117.568 38.9873 117.787 38.8683 117.983 38.719C118.184 38.565 118.345 38.3947 118.466 38.208C118.588 38.0167 118.648 37.8207 118.648 37.62V36.381L117.577 36.402C117.022 36.4113 116.56 36.4673 116.191 36.57C115.823 36.6727 115.545 36.8337 115.358 37.053C115.172 37.2723 115.078 37.5593 115.078 37.914C115.078 38.32 115.221 38.6373 115.505 38.866C115.79 39.0947 116.154 39.209 116.597 39.209ZM121.921 40V32.762H123.153V34.155C123.274 33.8097 123.444 33.525 123.664 33.301C123.883 33.0723 124.133 32.902 124.413 32.79C124.697 32.678 124.991 32.622 125.295 32.622C125.402 32.622 125.507 32.629 125.61 32.643C125.712 32.657 125.792 32.6803 125.848 32.713V33.966C125.778 33.9333 125.687 33.9123 125.575 33.903C125.467 33.889 125.376 33.882 125.302 33.882C125.012 33.8633 124.742 33.882 124.49 33.938C124.238 33.9893 124.016 34.0803 123.825 34.211C123.633 34.3417 123.482 34.5143 123.37 34.729C123.262 34.939 123.209 35.1957 123.209 35.499V40H121.921Z" fill="white"/>
</svg>
