<svg width="162" height="70" viewBox="0 0 162 70" fill="none" xmlns="http://www.w3.org/2000/svg">
<rect opacity="0.1" x="0.5" y="0.5" width="161" height="69" fill="#D9D9D9" stroke="black"/>
<path opacity="0.2" d="M33.0001 15.5C29.0544 15.4988 25.2011 16.6947 21.9494 18.9296C18.6976 21.1645 16.2003 24.3333 14.7874 28.0174C13.3745 31.7015 13.1125 35.7275 14.0359 39.5637C14.9594 43.3998 17.0248 46.8656 19.9595 49.5031C21.1823 47.0951 23.0479 45.0728 25.3497 43.6602C27.6515 42.2476 30.2994 41.4999 33.0001 41.5C31.3931 41.5 29.8222 41.0235 28.4861 40.1307C27.1499 39.2379 26.1085 37.969 25.4936 36.4843C24.8786 34.9997 24.7177 33.366 25.0312 31.7899C25.3447 30.2138 26.1185 28.7661 27.2548 27.6298C28.3911 26.4935 29.8389 25.7196 31.415 25.4061C32.9911 25.0926 34.6247 25.2535 36.1094 25.8685C37.594 26.4834 38.863 27.5248 39.7558 28.861C40.6486 30.1971 41.1251 31.768 41.1251 33.375C41.1251 35.5299 40.2691 37.5965 38.7453 39.1202C37.2216 40.644 35.155 41.5 33.0001 41.5C35.7008 41.4999 38.3487 42.2476 40.6505 43.6602C42.9522 45.0728 44.8179 47.0951 46.0407 49.5031C48.9753 46.8656 51.0408 43.3998 51.9642 39.5637C52.8877 35.7275 52.6256 31.7015 51.2127 28.0174C49.7999 24.3333 47.3026 21.1645 44.0508 18.9296C40.7991 16.6947 36.9458 15.4988 33.0001 15.5Z" fill="white"/>
<path d="M33 41.5C37.4873 41.5 41.125 37.8623 41.125 33.375C41.125 28.8877 37.4873 25.25 33 25.25C28.5127 25.25 24.875 28.8877 24.875 33.375C24.875 37.8623 28.5127 41.5 33 41.5Z" stroke="white" stroke-width="1.5" stroke-miterlimit="10"/>
<path d="M19.9595 49.5031C21.1821 47.0949 23.0477 45.0723 25.3495 43.6595C27.6513 42.2466 30.2993 41.4987 33.0001 41.4987C35.7009 41.4987 38.3489 42.2466 40.6507 43.6595C42.9525 45.0723 44.8181 47.0949 46.0407 49.5031" stroke="white" stroke-width="1.5" stroke-linecap="round" stroke-linejoin="round"/>
<path d="M42.75 20.375H52.5" stroke="white" stroke-width="1.5" stroke-linecap="round" stroke-linejoin="round"/>
<path d="M47.625 15.5V25.25" stroke="white" stroke-width="1.5" stroke-linecap="round" stroke-linejoin="round"/>
<path d="M52.2563 31.9328C52.4205 32.9469 52.502 33.9727 52.5 35C52.5 38.8567 51.3564 42.6269 49.2137 45.8336C47.071 49.0404 44.0255 51.5397 40.4623 53.0157C36.8992 54.4916 32.9784 54.8777 29.1957 54.1253C25.4131 53.3729 21.9386 51.5157 19.2114 48.7886C16.4843 46.0615 14.6271 42.5869 13.8747 38.8043C13.1223 35.0216 13.5084 31.1008 14.9844 27.5377C16.4603 23.9745 18.9596 20.929 22.1664 18.7863C25.3731 16.6437 29.1433 15.5 33 15.5C34.0273 15.498 35.0531 15.5795 36.0672 15.7437" stroke="white" stroke-width="1.5" stroke-linecap="round" stroke-linejoin="round"/>
<path d="M70.337 40V29.878H74.257C74.985 29.878 75.594 29.99 76.084 30.214C76.574 30.4333 76.9403 30.7507 77.183 31.166C77.4257 31.5767 77.547 32.069 77.547 32.643C77.547 33.1937 77.449 33.651 77.253 34.015C77.0617 34.379 76.8167 34.673 76.518 34.897C76.2193 35.1163 75.909 35.2867 75.587 35.408L77.575 40H76.203L74.355 35.639H71.632V40H70.337ZM71.632 34.568H73.837C74.5977 34.568 75.1857 34.414 75.601 34.106C76.0163 33.7933 76.224 33.3313 76.224 32.72C76.224 32.1227 76.0373 31.677 75.664 31.383C75.2953 31.0843 74.789 30.935 74.145 30.935H71.632V34.568ZM82.3722 40.14C81.7002 40.14 81.1075 39.993 80.5942 39.699C80.0809 39.405 79.6795 38.9827 79.3902 38.432C79.1009 37.8813 78.9562 37.221 78.9562 36.451C78.9562 35.6903 79.0869 35.023 79.3482 34.449C79.6095 33.875 79.9875 33.427 80.4822 33.105C80.9815 32.783 81.5812 32.622 82.2812 32.622C82.9625 32.622 83.5389 32.769 84.0102 33.063C84.4815 33.357 84.8385 33.7723 85.0812 34.309C85.3285 34.841 85.4522 35.4733 85.4522 36.206V36.682H80.2652C80.2652 37.1393 80.3399 37.5547 80.4892 37.928C80.6432 38.2967 80.8742 38.5907 81.1822 38.81C81.4902 39.0293 81.8799 39.139 82.3512 39.139C82.8132 39.139 83.2099 39.0317 83.5412 38.817C83.8772 38.6023 84.0919 38.292 84.1852 37.886H85.4032C85.3192 38.376 85.1232 38.789 84.8152 39.125C84.5119 39.461 84.1455 39.7153 83.7162 39.888C83.2915 40.056 82.8435 40.14 82.3722 40.14ZM80.2722 35.807H84.2062C84.2062 35.3917 84.1362 35.0183 83.9962 34.687C83.8562 34.351 83.6415 34.0873 83.3522 33.896C83.0675 33.7 82.7082 33.602 82.2742 33.602C81.8215 33.602 81.4459 33.7117 81.1472 33.931C80.8485 34.1457 80.6269 34.4233 80.4822 34.764C80.3375 35.1 80.2675 35.4477 80.2722 35.807ZM90.2472 42.394C89.1132 42.394 88.2289 42.2283 87.5942 41.897C86.9595 41.5703 86.6422 41.1013 86.6422 40.49C86.6422 40.2287 86.7029 40.007 86.8242 39.825C86.9455 39.6383 87.0902 39.4843 87.2582 39.363C87.4262 39.2417 87.5825 39.146 87.7272 39.076C87.8719 39.0013 87.9675 38.9477 88.0142 38.915C87.9302 38.8683 87.8299 38.81 87.7132 38.74C87.5965 38.67 87.4915 38.5767 87.3982 38.46C87.3095 38.3433 87.2652 38.1917 87.2652 38.005C87.2652 37.7763 87.3725 37.5663 87.5872 37.375C87.8019 37.1837 88.1215 37.0413 88.5462 36.948C88.1215 36.7333 87.7902 36.4487 87.5522 36.094C87.3142 35.7393 87.1952 35.3543 87.1952 34.939C87.1952 34.4723 87.3212 34.0663 87.5732 33.721C87.8252 33.3757 88.1869 33.112 88.6582 32.93C89.1295 32.7433 89.6919 32.65 90.3452 32.65C90.8165 32.65 91.2109 32.706 91.5282 32.818C91.8502 32.9253 92.1489 33.0793 92.4242 33.28C92.4989 33.2473 92.6179 33.1983 92.7812 33.133C92.9445 33.063 93.1219 32.9883 93.3132 32.909C93.5092 32.8297 93.6912 32.755 93.8592 32.685C94.0319 32.6103 94.1695 32.5543 94.2722 32.517L94.2652 33.714L92.9982 33.952C93.0729 34.1013 93.1312 34.2647 93.1732 34.442C93.2152 34.6193 93.2362 34.785 93.2362 34.939C93.2362 35.3637 93.1242 35.7487 92.9002 36.094C92.6809 36.4393 92.3472 36.7147 91.8992 36.92C91.4512 37.1253 90.8912 37.228 90.2192 37.228C90.1632 37.228 90.0909 37.228 90.0022 37.228C89.9182 37.2233 89.8459 37.2187 89.7852 37.214C89.2905 37.228 88.9499 37.284 88.7632 37.382C88.5812 37.4753 88.4902 37.5803 88.4902 37.697C88.4902 37.8323 88.5952 37.9257 88.8052 37.977C89.0152 38.0283 89.3699 38.0727 89.8692 38.11C90.0512 38.1193 90.2752 38.131 90.5412 38.145C90.8119 38.159 91.1129 38.1777 91.4442 38.201C92.2002 38.2477 92.7835 38.4413 93.1942 38.782C93.6049 39.1227 93.8102 39.5823 93.8102 40.161C93.8102 40.819 93.5162 41.3557 92.9282 41.771C92.3449 42.1863 91.4512 42.394 90.2472 42.394ZM90.4782 41.561C91.1455 41.561 91.6565 41.4607 92.0112 41.26C92.3705 41.0593 92.5502 40.756 92.5502 40.35C92.5502 40.0607 92.4405 39.825 92.2212 39.643C92.0019 39.4563 91.6705 39.349 91.2272 39.321L89.1972 39.188C89.0152 39.1787 88.8262 39.2253 88.6302 39.328C88.4342 39.426 88.2685 39.5637 88.1332 39.741C87.9979 39.9183 87.9302 40.119 87.9302 40.343C87.9302 40.7257 88.1379 41.0243 88.5532 41.239C88.9685 41.4537 89.6102 41.561 90.4782 41.561ZM90.2612 36.395C90.7792 36.395 91.1969 36.2737 91.5142 36.031C91.8362 35.7883 91.9972 35.429 91.9972 34.953C91.9972 34.463 91.8362 34.0897 91.5142 33.833C91.1969 33.5763 90.7792 33.448 90.2612 33.448C89.7292 33.448 89.2999 33.5787 88.9732 33.84C88.6512 34.0967 88.4902 34.4677 88.4902 34.953C88.4902 35.4103 88.6442 35.765 88.9522 36.017C89.2649 36.269 89.7012 36.395 90.2612 36.395ZM95.9322 40V32.762H97.1852V40H95.9322ZM95.8972 31.229V29.885H97.2202V31.229H95.8972ZM101.96 40.14C101.456 40.14 100.987 40.063 100.553 39.909C100.124 39.7503 99.7668 39.5053 99.4822 39.174C99.1975 38.838 99.0202 38.411 98.9502 37.893H100.126C100.187 38.1777 100.303 38.4157 100.476 38.607C100.649 38.7937 100.861 38.936 101.113 39.034C101.37 39.1273 101.65 39.174 101.953 39.174C102.443 39.174 102.837 39.083 103.136 38.901C103.435 38.719 103.584 38.439 103.584 38.061C103.584 37.795 103.505 37.5827 103.346 37.424C103.192 37.2607 102.949 37.1417 102.618 37.067L101.12 36.696C100.537 36.556 100.07 36.3367 99.7202 36.038C99.3748 35.7393 99.1998 35.3217 99.1952 34.785C99.1952 34.3603 99.2978 33.987 99.5032 33.665C99.7085 33.343 100.014 33.0887 100.42 32.902C100.831 32.7153 101.342 32.622 101.953 32.622C102.742 32.622 103.376 32.7993 103.857 33.154C104.338 33.504 104.59 34.0197 104.613 34.701H103.465C103.418 34.3557 103.264 34.0827 103.003 33.882C102.742 33.6767 102.387 33.574 101.939 33.574C101.482 33.574 101.106 33.6673 100.812 33.854C100.523 34.036 100.378 34.3207 100.378 34.708C100.378 34.9647 100.481 35.1677 100.686 35.317C100.896 35.4617 101.199 35.583 101.596 35.681L103.052 36.045C103.383 36.1337 103.659 36.2503 103.878 36.395C104.097 36.5397 104.27 36.7007 104.396 36.878C104.522 37.0553 104.611 37.242 104.662 37.438C104.718 37.6293 104.746 37.8137 104.746 37.991C104.746 38.4343 104.636 38.817 104.417 39.139C104.198 39.4563 103.88 39.7037 103.465 39.881C103.05 40.0537 102.548 40.14 101.96 40.14ZM108.941 40.035C108.441 40.035 108.054 39.9673 107.779 39.832C107.503 39.6967 107.31 39.496 107.198 39.23C107.09 38.964 107.037 38.6373 107.037 38.25V33.707H105.861V32.762H107.072L107.387 30.655H108.339V32.755H109.97V33.707H108.339V38.208C108.339 38.4647 108.364 38.6537 108.416 38.775C108.472 38.8917 108.563 38.9663 108.689 38.999C108.815 39.0317 108.992 39.048 109.221 39.048H110.012V39.916C109.923 39.9487 109.788 39.9767 109.606 40C109.428 40.0233 109.207 40.035 108.941 40.035ZM111.729 40V32.762H112.961V34.155C113.083 33.8097 113.253 33.525 113.472 33.301C113.692 33.0723 113.941 32.902 114.221 32.79C114.506 32.678 114.8 32.622 115.103 32.622C115.211 32.622 115.316 32.629 115.418 32.643C115.521 32.657 115.6 32.6803 115.656 32.713V33.966C115.586 33.9333 115.495 33.9123 115.383 33.903C115.276 33.889 115.185 33.882 115.11 33.882C114.821 33.8633 114.55 33.882 114.298 33.938C114.046 33.9893 113.825 34.0803 113.633 34.211C113.442 34.3417 113.29 34.5143 113.178 34.729C113.071 34.939 113.017 35.1957 113.017 35.499V40H111.729ZM118.968 40.14C118.497 40.14 118.082 40.0583 117.722 39.895C117.368 39.727 117.088 39.4867 116.882 39.174C116.682 38.8613 116.581 38.4833 116.581 38.04C116.581 37.2373 116.861 36.64 117.421 36.248C117.981 35.856 118.88 35.646 120.116 35.618L121.404 35.583V35.016C121.404 34.5727 121.271 34.2227 121.005 33.966C120.739 33.7047 120.329 33.574 119.773 33.574C119.358 33.5787 118.992 33.6767 118.674 33.868C118.357 34.0593 118.154 34.372 118.065 34.806H116.924C116.952 34.3347 117.083 33.938 117.316 33.616C117.554 33.2893 117.888 33.042 118.317 32.874C118.747 32.706 119.253 32.622 119.836 32.622C120.466 32.622 120.989 32.7107 121.404 32.888C121.824 33.0653 122.137 33.3267 122.342 33.672C122.552 34.0173 122.657 34.442 122.657 34.946V40H121.551L121.453 38.642C121.178 39.2067 120.823 39.5987 120.389 39.818C119.96 40.0327 119.486 40.14 118.968 40.14ZM119.353 39.209C119.601 39.209 119.843 39.1647 120.081 39.076C120.324 38.9873 120.543 38.8683 120.739 38.719C120.94 38.565 121.101 38.3947 121.222 38.208C121.344 38.0167 121.404 37.8207 121.404 37.62V36.381L120.333 36.402C119.778 36.4113 119.316 36.4673 118.947 36.57C118.579 36.6727 118.301 36.8337 118.114 37.053C117.928 37.2723 117.834 37.5593 117.834 37.914C117.834 38.32 117.977 38.6373 118.261 38.866C118.546 39.0947 118.91 39.209 119.353 39.209ZM124.676 40V32.762H125.908V34.155C126.03 33.8097 126.2 33.525 126.419 33.301C126.639 33.0723 126.888 32.902 127.168 32.79C127.453 32.678 127.747 32.622 128.05 32.622C128.158 32.622 128.263 32.629 128.365 32.643C128.468 32.657 128.547 32.6803 128.603 32.713V33.966C128.533 33.9333 128.442 33.9123 128.33 33.903C128.223 33.889 128.132 33.882 128.057 33.882C127.768 33.8633 127.497 33.882 127.245 33.938C126.993 33.9893 126.772 34.0803 126.58 34.211C126.389 34.3417 126.237 34.5143 126.125 34.729C126.018 34.939 125.964 35.1957 125.964 35.499V40H124.676ZM132.708 40.14C132.204 40.14 131.735 40.063 131.301 39.909C130.872 39.7503 130.515 39.5053 130.23 39.174C129.946 38.838 129.768 38.411 129.698 37.893H130.874C130.935 38.1777 131.052 38.4157 131.224 38.607C131.397 38.7937 131.609 38.936 131.861 39.034C132.118 39.1273 132.398 39.174 132.701 39.174C133.191 39.174 133.586 39.083 133.884 38.901C134.183 38.719 134.332 38.439 134.332 38.061C134.332 37.795 134.253 37.5827 134.094 37.424C133.94 37.2607 133.698 37.1417 133.366 37.067L131.868 36.696C131.285 36.556 130.818 36.3367 130.468 36.038C130.123 35.7393 129.948 35.3217 129.943 34.785C129.943 34.3603 130.046 33.987 130.251 33.665C130.457 33.343 130.762 33.0887 131.168 32.902C131.579 32.7153 132.09 32.622 132.701 32.622C133.49 32.622 134.125 32.7993 134.605 33.154C135.086 33.504 135.338 34.0197 135.361 34.701H134.213C134.167 34.3557 134.013 34.0827 133.751 33.882C133.49 33.6767 133.135 33.574 132.687 33.574C132.23 33.574 131.854 33.6673 131.56 33.854C131.271 34.036 131.126 34.3207 131.126 34.708C131.126 34.9647 131.229 35.1677 131.434 35.317C131.644 35.4617 131.948 35.583 132.344 35.681L133.8 36.045C134.132 36.1337 134.407 36.2503 134.626 36.395C134.846 36.5397 135.018 36.7007 135.144 36.878C135.27 37.0553 135.359 37.242 135.41 37.438C135.466 37.6293 135.494 37.8137 135.494 37.991C135.494 38.4343 135.385 38.817 135.165 39.139C134.946 39.4563 134.629 39.7037 134.213 39.881C133.798 40.0537 133.296 40.14 132.708 40.14ZM140.245 40.14C139.573 40.14 138.981 39.993 138.467 39.699C137.954 39.405 137.553 38.9827 137.263 38.432C136.974 37.8813 136.829 37.221 136.829 36.451C136.829 35.6903 136.96 35.023 137.221 34.449C137.483 33.875 137.861 33.427 138.355 33.105C138.855 32.783 139.454 32.622 140.154 32.622C140.836 32.622 141.412 32.769 141.883 33.063C142.355 33.357 142.712 33.7723 142.954 34.309C143.202 34.841 143.325 35.4733 143.325 36.206V36.682H138.138C138.138 37.1393 138.213 37.5547 138.362 37.928C138.516 38.2967 138.747 38.5907 139.055 38.81C139.363 39.0293 139.753 39.139 140.224 39.139C140.686 39.139 141.083 39.0317 141.414 38.817C141.75 38.6023 141.965 38.292 142.058 37.886H143.276C143.192 38.376 142.996 38.789 142.688 39.125C142.385 39.461 142.019 39.7153 141.589 39.888C141.165 40.056 140.717 40.14 140.245 40.14ZM138.145 35.807H142.079C142.079 35.3917 142.009 35.0183 141.869 34.687C141.729 34.351 141.515 34.0873 141.225 33.896C140.941 33.7 140.581 33.602 140.147 33.602C139.695 33.602 139.319 33.7117 139.02 33.931C138.722 34.1457 138.5 34.4233 138.355 34.764C138.211 35.1 138.141 35.4477 138.145 35.807Z" fill="white"/>
</svg>
