<svg width="240" height="60" viewBox="0 0 240 60" fill="none" xmlns="http://www.w3.org/2000/svg">
<rect width="240" height="60" fill="#F2F4F5"/>
<path d="M63.9969 19.6437C63.862 19.5596 63.7078 19.5111 63.549 19.5029C63.3902 19.4947 63.2319 19.5271 63.0891 19.5969C56.2672 22.9281 51.4188 21.3766 46.2859 19.7344C41.025 18.0516 35.5859 16.3125 28.0891 19.975C27.9312 20.052 27.7982 20.1717 27.7051 20.3206C27.612 20.4695 27.5626 20.6416 27.5625 20.8172V39.5672C27.5626 39.7262 27.6031 39.8825 27.6802 40.0215C27.7573 40.1606 27.8685 40.2777 28.0034 40.3619C28.1382 40.4461 28.2923 40.4946 28.451 40.503C28.6098 40.5113 28.768 40.4791 28.9109 40.4094C35.7328 37.0781 40.5813 38.6297 45.7141 40.2719C48.6828 41.2234 51.7234 42.1937 55.1547 42.1937C57.7875 42.1937 60.6562 41.6219 63.9047 40.0312C64.0625 39.9543 64.1956 39.8345 64.2887 39.6856C64.3818 39.5367 64.4312 39.3647 64.4313 39.1891V20.4391C64.432 20.2806 64.3925 20.1245 64.3165 19.9854C64.2406 19.8464 64.1306 19.7288 63.9969 19.6437ZM62.5625 38.5937C56.0156 41.5953 51.2859 40.0828 46.2859 38.4828C43.3094 37.5281 40.2766 36.5625 36.8453 36.5625C34.5813 36.5625 32.1453 36.9844 29.4375 38.1125V21.4062C35.9844 18.4047 40.7141 19.9172 45.7141 21.5172C50.6531 23.1 55.7516 24.7312 62.5625 21.8922V38.5937ZM46 25.3125C45.0729 25.3125 44.1666 25.5874 43.3958 26.1025C42.6249 26.6176 42.0241 27.3496 41.6693 28.2062C41.3145 29.0627 41.2217 30.0052 41.4026 30.9145C41.5834 31.8238 42.0299 32.659 42.6854 33.3146C43.341 33.9701 44.1762 34.4166 45.0855 34.5974C45.9948 34.7783 46.9373 34.6855 47.7938 34.3307C48.6504 33.9759 49.3824 33.3751 49.8975 32.6042C50.4126 31.8334 50.6875 30.9271 50.6875 30C50.6875 28.7568 50.1936 27.5645 49.3146 26.6854C48.4355 25.8064 47.2432 25.3125 46 25.3125ZM46 32.8125C45.4437 32.8125 44.9 32.6475 44.4375 32.3385C43.9749 32.0295 43.6145 31.5902 43.4016 31.0763C43.1887 30.5624 43.133 29.9969 43.2415 29.4513C43.3501 28.9057 43.6179 28.4046 44.0113 28.0113C44.4046 27.6179 44.9057 27.3501 45.4513 27.2415C45.9969 27.133 46.5624 27.1887 47.0763 27.4016C47.5902 27.6145 48.0295 27.9749 48.3385 28.4375C48.6475 28.9 48.8125 29.4437 48.8125 30C48.8125 30.7459 48.5162 31.4613 47.9887 31.9887C47.4613 32.5162 46.7459 32.8125 46 32.8125ZM34.4375 25V32.5C34.4375 32.7486 34.3387 32.9871 34.1629 33.1629C33.9871 33.3387 33.7486 33.4375 33.5 33.4375C33.2514 33.4375 33.0129 33.3387 32.8371 33.1629C32.6613 32.9871 32.5625 32.7486 32.5625 32.5V25C32.5625 24.7514 32.6613 24.5129 32.8371 24.3371C33.0129 24.1613 33.2514 24.0625 33.5 24.0625C33.7486 24.0625 33.9871 24.1613 34.1629 24.3371C34.3387 24.5129 34.4375 24.7514 34.4375 25ZM57.5625 35V27.5C57.5625 27.2514 57.6613 27.0129 57.8371 26.8371C58.0129 26.6613 58.2514 26.5625 58.5 26.5625C58.7486 26.5625 58.9871 26.6613 59.1629 26.8371C59.3387 27.0129 59.4375 27.2514 59.4375 27.5V35C59.4375 35.2486 59.3387 35.4871 59.1629 35.6629C58.9871 35.8387 58.7486 35.9375 58.5 35.9375C58.2514 35.9375 58.0129 35.8387 57.8371 35.6629C57.6613 35.4871 57.5625 35.2486 57.5625 35Z" fill="#191C1F"/>
<path d="M96.66 39L90.528 21.648H93.036L98.172 36.06L103.296 21.648H105.816L99.684 39H96.66ZM112.304 39.24C111.128 39.24 110.092 38.988 109.196 38.484C108.3 37.972 107.6 37.244 107.096 36.3C106.6 35.356 106.352 34.232 106.352 32.928C106.352 31.64 106.58 30.504 107.036 29.52C107.492 28.528 108.152 27.752 109.016 27.192C109.88 26.632 110.92 26.352 112.136 26.352C113.328 26.352 114.336 26.608 115.16 27.12C115.984 27.632 116.608 28.352 117.032 29.28C117.456 30.2 117.668 31.288 117.668 32.544V33.396H108.932C108.924 34.14 109.044 34.808 109.292 35.4C109.54 35.984 109.908 36.448 110.396 36.792C110.892 37.128 111.508 37.296 112.243 37.296C112.988 37.296 113.628 37.128 114.164 36.792C114.708 36.456 115.064 35.956 115.232 35.292H117.608C117.464 36.14 117.124 36.86 116.588 37.452C116.052 38.044 115.408 38.492 114.656 38.796C113.904 39.092 113.12 39.24 112.304 39.24ZM108.932 31.728H115.22C115.22 31.08 115.108 30.492 114.884 29.964C114.66 29.428 114.316 29.008 113.852 28.704C113.396 28.392 112.82 28.236 112.124 28.236C111.412 28.236 110.82 28.408 110.348 28.752C109.876 29.096 109.52 29.536 109.28 30.072C109.048 30.608 108.932 31.16 108.932 31.728ZM120.592 39V26.592H123.1V28.38C123.3 28.044 123.568 27.728 123.904 27.432C124.248 27.136 124.668 26.896 125.164 26.712C125.668 26.528 126.248 26.436 126.904 26.436C127.68 26.436 128.396 26.592 129.052 26.904C129.716 27.208 130.248 27.688 130.648 28.344C131.048 28.992 131.248 29.832 131.248 30.864V39H128.68V31.14C128.68 30.252 128.44 29.592 127.96 29.16C127.488 28.728 126.876 28.512 126.124 28.512C125.62 28.512 125.14 28.596 124.684 28.764C124.228 28.932 123.86 29.188 123.58 29.532C123.3 29.868 123.16 30.292 123.16 30.804V39H120.592ZM139.109 39.24C137.485 39.24 136.201 38.684 135.257 37.572C134.321 36.452 133.853 34.84 133.853 32.736C133.853 31.448 134.041 30.328 134.417 29.376C134.801 28.416 135.365 27.672 136.109 27.144C136.853 26.616 137.781 26.352 138.893 26.352C139.445 26.352 139.941 26.42 140.381 26.556C140.821 26.692 141.205 26.868 141.533 27.084C141.861 27.3 142.137 27.532 142.361 27.78C142.585 28.028 142.753 28.26 142.865 28.476V21.168H145.457V39H143.525L143.237 36.456C143.149 36.728 143.013 37.024 142.829 37.344C142.653 37.664 142.405 37.968 142.085 38.256C141.773 38.544 141.373 38.78 140.885 38.964C140.397 39.148 139.805 39.24 139.109 39.24ZM139.601 37.308C140.753 37.308 141.585 36.948 142.097 36.228C142.609 35.5 142.865 34.308 142.865 32.652C142.857 31.716 142.741 30.924 142.517 30.276C142.301 29.628 141.957 29.14 141.485 28.812C141.021 28.476 140.409 28.308 139.649 28.308C138.697 28.308 137.917 28.652 137.309 29.34C136.709 30.02 136.409 31.124 136.409 32.652C136.409 34.156 136.681 35.308 137.225 36.108C137.777 36.908 138.569 37.308 139.601 37.308ZM154.304 39.24C153.128 39.24 152.092 38.988 151.196 38.484C150.3 37.972 149.6 37.244 149.096 36.3C148.6 35.356 148.352 34.232 148.352 32.928C148.352 31.64 148.58 30.504 149.036 29.52C149.492 28.528 150.152 27.752 151.016 27.192C151.88 26.632 152.92 26.352 154.136 26.352C155.328 26.352 156.336 26.608 157.16 27.12C157.984 27.632 158.608 28.352 159.032 29.28C159.456 30.2 159.668 31.288 159.668 32.544V33.396H150.932C150.924 34.14 151.044 34.808 151.292 35.4C151.54 35.984 151.908 36.448 152.396 36.792C152.892 37.128 153.508 37.296 154.243 37.296C154.988 37.296 155.628 37.128 156.164 36.792C156.708 36.456 157.064 35.956 157.232 35.292H159.608C159.464 36.14 159.124 36.86 158.588 37.452C158.052 38.044 157.408 38.492 156.656 38.796C155.904 39.092 155.12 39.24 154.304 39.24ZM150.932 31.728H157.22C157.22 31.08 157.108 30.492 156.884 29.964C156.66 29.428 156.316 29.008 155.852 28.704C155.396 28.392 154.82 28.236 154.124 28.236C153.412 28.236 152.82 28.408 152.348 28.752C151.876 29.096 151.52 29.536 151.28 30.072C151.048 30.608 150.932 31.16 150.932 31.728ZM162.592 39V26.592H165.052V29.136C165.26 28.528 165.548 28.02 165.916 27.612C166.292 27.196 166.728 26.884 167.224 26.676C167.72 26.46 168.244 26.352 168.796 26.352C168.964 26.352 169.124 26.364 169.276 26.388C169.428 26.404 169.548 26.436 169.636 26.484V28.956C169.532 28.908 169.396 28.876 169.228 28.86C169.068 28.844 168.928 28.832 168.808 28.824C168.264 28.784 167.768 28.812 167.32 28.908C166.872 29.004 166.484 29.164 166.156 29.388C165.836 29.612 165.588 29.904 165.412 30.264C165.244 30.624 165.16 31.048 165.16 31.536V39H162.592Z" fill="#191C1F"/>
</svg>
