<svg width="240" height="60" viewBox="0 0 240 60" fill="none" xmlns="http://www.w3.org/2000/svg">
<rect width="240" height="60" fill="#F2F4F5"/>
<g clip-path="url(#clip0_11_2085)">
<path d="M41 30H51" stroke="#191C1F" stroke-width="2" stroke-linecap="round" stroke-linejoin="round"/>
<path d="M41 35H51" stroke="#191C1F" stroke-width="2" stroke-linecap="round" stroke-linejoin="round"/>
<path d="M33.5 16.25H58.5V41.25C58.5 42.2446 58.1049 43.1984 57.4017 43.9017C56.6984 44.6049 55.7446 45 54.75 45H37.25C36.2554 45 35.3016 44.6049 34.5983 43.9017C33.8951 43.1984 33.5 42.2446 33.5 41.25V16.25Z" stroke="#191C1F" stroke-width="2" stroke-linecap="round" stroke-linejoin="round"/>
<path d="M38.5 13.75V18.75" stroke="#191C1F" stroke-width="2" stroke-linecap="round" stroke-linejoin="round"/>
<path d="M46 13.75V18.75" stroke="#191C1F" stroke-width="2" stroke-linecap="round" stroke-linejoin="round"/>
<path d="M53.5 13.75V18.75" stroke="#191C1F" stroke-width="2" stroke-linecap="round" stroke-linejoin="round"/>
</g>
<path d="M92.196 39V21.648H95.82L100.704 35.448L105.66 21.648H109.26V39H106.632V25.176L101.832 39H99.588L94.812 25.284V39H92.196ZM113.245 39V26.592H115.717V39H113.245ZM113.185 24.192V21.66H115.765V24.192H113.185ZM123.876 39.24C123.012 39.24 122.2 39.104 121.44 38.832C120.688 38.56 120.056 38.132 119.544 37.548C119.04 36.964 118.724 36.216 118.596 35.304H120.888C120.992 35.776 121.188 36.168 121.476 36.48C121.772 36.784 122.124 37.012 122.532 37.164C122.948 37.308 123.392 37.38 123.864 37.38C124.648 37.38 125.284 37.24 125.772 36.96C126.26 36.672 126.504 36.232 126.504 35.64C126.504 35.216 126.372 34.876 126.108 34.62C125.844 34.364 125.432 34.176 124.872 34.056L122.4 33.468C121.376 33.228 120.556 32.848 119.94 32.328C119.324 31.8 119.012 31.064 119.004 30.12C119.004 29.392 119.184 28.744 119.544 28.176C119.912 27.608 120.456 27.164 121.176 26.844C121.904 26.516 122.8 26.352 123.864 26.352C125.264 26.352 126.388 26.664 127.236 27.288C128.092 27.912 128.532 28.816 128.556 30H126.336C126.256 29.432 125.996 28.988 125.556 28.668C125.124 28.34 124.552 28.176 123.84 28.176C123.104 28.176 122.5 28.324 122.028 28.62C121.556 28.908 121.32 29.352 121.32 29.952C121.32 30.36 121.492 30.684 121.836 30.924C122.188 31.156 122.704 31.348 123.384 31.5L125.736 32.088C126.344 32.248 126.844 32.46 127.236 32.724C127.628 32.98 127.936 33.264 128.16 33.576C128.384 33.888 128.54 34.212 128.628 34.548C128.724 34.884 128.772 35.2 128.772 35.496C128.772 36.28 128.572 36.952 128.172 37.512C127.78 38.064 127.22 38.492 126.492 38.796C125.764 39.092 124.892 39.24 123.876 39.24ZM140.321 39L135.785 26.592H138.161L141.305 35.748H141.473L144.617 26.592H146.993L142.481 39H140.321ZM154.327 39.24C153.151 39.24 152.115 38.988 151.219 38.484C150.323 37.972 149.623 37.244 149.119 36.3C148.623 35.356 148.375 34.232 148.375 32.928C148.375 31.64 148.603 30.504 149.059 29.52C149.515 28.528 150.175 27.752 151.039 27.192C151.903 26.632 152.943 26.352 154.159 26.352C155.351 26.352 156.359 26.608 157.183 27.12C158.007 27.632 158.631 28.352 159.055 29.28C159.479 30.2 159.691 31.288 159.691 32.544V33.396H150.955C150.947 34.14 151.067 34.808 151.315 35.4C151.563 35.984 151.931 36.448 152.419 36.792C152.915 37.128 153.531 37.296 154.267 37.296C155.011 37.296 155.651 37.128 156.187 36.792C156.731 36.456 157.087 35.956 157.255 35.292H159.631C159.487 36.14 159.147 36.86 158.611 37.452C158.075 38.044 157.431 38.492 156.679 38.796C155.927 39.092 155.143 39.24 154.327 39.24ZM150.955 31.728H157.243C157.243 31.08 157.131 30.492 156.907 29.964C156.683 29.428 156.339 29.008 155.875 28.704C155.419 28.392 154.843 28.236 154.147 28.236C153.435 28.236 152.843 28.408 152.371 28.752C151.899 29.096 151.543 29.536 151.303 30.072C151.071 30.608 150.955 31.16 150.955 31.728ZM162.615 39V26.592H165.123V28.38C165.323 28.044 165.591 27.728 165.927 27.432C166.271 27.136 166.691 26.896 167.187 26.712C167.691 26.528 168.271 26.436 168.927 26.436C169.703 26.436 170.419 26.592 171.075 26.904C171.739 27.208 172.271 27.688 172.671 28.344C173.071 28.992 173.271 29.832 173.271 30.864V39H170.703V31.14C170.703 30.252 170.463 29.592 169.983 29.16C169.511 28.728 168.899 28.512 168.147 28.512C167.643 28.512 167.163 28.596 166.707 28.764C166.251 28.932 165.883 29.188 165.603 29.532C165.323 29.868 165.183 30.292 165.183 30.804V39H162.615ZM180.809 39.084C179.889 39.084 179.177 38.96 178.673 38.712C178.169 38.464 177.817 38.108 177.617 37.644C177.417 37.172 177.317 36.604 177.317 35.94V28.44H175.301V26.592H177.401L178.025 22.944H179.897V26.58H182.681V28.44H179.897L179.909 35.844C179.909 36.252 179.949 36.552 180.029 36.744C180.117 36.928 180.261 37.048 180.461 37.104C180.669 37.152 180.949 37.176 181.301 37.176H182.741V38.844C182.589 38.908 182.353 38.964 182.033 39.012C181.721 39.06 181.313 39.084 180.809 39.084ZM189.03 39.24C188.23 39.24 187.518 39.096 186.894 38.808C186.278 38.52 185.794 38.104 185.442 37.56C185.09 37.016 184.914 36.36 184.914 35.592C184.914 34.216 185.398 33.188 186.366 32.508C187.342 31.828 188.902 31.468 191.046 31.428L193.086 31.368V30.468C193.086 29.756 192.874 29.196 192.45 28.788C192.026 28.38 191.37 28.18 190.482 28.188C189.826 28.188 189.238 28.34 188.718 28.644C188.198 28.948 187.858 29.448 187.698 30.144H185.478C185.526 29.32 185.762 28.628 186.186 28.068C186.618 27.5 187.21 27.072 187.962 26.784C188.714 26.496 189.594 26.352 190.602 26.352C191.738 26.352 192.67 26.508 193.398 26.82C194.126 27.124 194.666 27.572 195.018 28.164C195.378 28.756 195.558 29.476 195.558 30.324V39H193.374L193.182 36.72C192.718 37.672 192.13 38.332 191.418 38.7C190.706 39.06 189.91 39.24 189.03 39.24ZM189.834 37.452C190.226 37.452 190.614 37.384 190.998 37.248C191.382 37.104 191.73 36.912 192.042 36.672C192.354 36.424 192.602 36.148 192.786 35.844C192.978 35.54 193.078 35.228 193.086 34.908V32.856L191.406 32.892C190.55 32.9 189.822 32.988 189.222 33.156C188.63 33.324 188.174 33.584 187.854 33.936C187.542 34.288 187.386 34.756 187.386 35.34C187.386 36.004 187.614 36.524 188.07 36.9C188.534 37.268 189.122 37.452 189.834 37.452ZM203.352 39.24C202.488 39.24 201.676 39.104 200.916 38.832C200.164 38.56 199.532 38.132 199.02 37.548C198.516 36.964 198.2 36.216 198.072 35.304H200.364C200.468 35.776 200.664 36.168 200.952 36.48C201.248 36.784 201.6 37.012 202.008 37.164C202.424 37.308 202.868 37.38 203.34 37.38C204.124 37.38 204.76 37.24 205.248 36.96C205.736 36.672 205.98 36.232 205.98 35.64C205.98 35.216 205.848 34.876 205.584 34.62C205.32 34.364 204.908 34.176 204.348 34.056L201.876 33.468C200.852 33.228 200.032 32.848 199.416 32.328C198.8 31.8 198.488 31.064 198.48 30.12C198.48 29.392 198.66 28.744 199.02 28.176C199.388 27.608 199.932 27.164 200.652 26.844C201.38 26.516 202.276 26.352 203.34 26.352C204.74 26.352 205.864 26.664 206.712 27.288C207.568 27.912 208.008 28.816 208.032 30H205.812C205.732 29.432 205.472 28.988 205.032 28.668C204.6 28.34 204.028 28.176 203.316 28.176C202.58 28.176 201.976 28.324 201.504 28.62C201.032 28.908 200.796 29.352 200.796 29.952C200.796 30.36 200.968 30.684 201.312 30.924C201.664 31.156 202.18 31.348 202.86 31.5L205.212 32.088C205.82 32.248 206.32 32.46 206.712 32.724C207.104 32.98 207.412 33.264 207.636 33.576C207.86 33.888 208.016 34.212 208.104 34.548C208.2 34.884 208.248 35.2 208.248 35.496C208.248 36.28 208.048 36.952 207.648 37.512C207.256 38.064 206.696 38.492 205.968 38.796C205.24 39.092 204.368 39.24 203.352 39.24Z" fill="#191C1F"/>
<defs>
<clipPath id="clip0_11_2085">
<rect width="40" height="40" fill="white" transform="translate(26 10)"/>
</clipPath>
</defs>
</svg>
