<svg width="240" height="60" viewBox="0 0 240 60" fill="none" xmlns="http://www.w3.org/2000/svg">
<rect width="240" height="60" fill="#F2F4F5"/>
<g filter="url(#filter0_d_27_2114)">
<path d="M46.725 35.9925C46.0313 34.7975 45 31.4163 45 27C45 24.3478 43.9464 21.8043 42.0711 19.9289C40.1957 18.0536 37.6522 17 35 17C32.3479 17 29.8043 18.0536 27.9289 19.9289C26.0536 21.8043 25 24.3478 25 27C25 31.4175 23.9675 34.7975 23.2738 35.9925C23.0966 36.2963 23.0027 36.6415 23.0015 36.9931C23.0003 37.3448 23.0918 37.6906 23.2669 37.9956C23.442 38.3006 23.6944 38.5541 23.9986 38.7304C24.3029 38.9068 24.6483 38.9997 25 39H30.1013C30.332 40.1289 30.9455 41.1436 31.8382 41.8722C32.7308 42.6009 33.8477 42.9989 35 42.9989C36.1523 42.9989 37.2692 42.6009 38.1618 41.8722C39.0545 41.1436 39.6681 40.1289 39.8988 39H45C45.3516 38.9995 45.6968 38.9064 46.0009 38.73C46.3051 38.5535 46.5573 38.3 46.7322 37.9951C46.9071 37.6901 46.9986 37.3444 46.9973 36.9928C46.996 36.6412 46.9021 36.2962 46.725 35.9925ZM35 41C34.3798 40.9998 33.7749 40.8074 33.2685 40.4492C32.7622 40.0911 32.3793 39.5848 32.1725 39H37.8275C37.6208 39.5848 37.2379 40.0911 36.7315 40.4492C36.2252 40.8074 35.6202 40.9998 35 41ZM25 37C25.9625 35.345 27 31.51 27 27C27 24.8783 27.8429 22.8434 29.3432 21.3431C30.8435 19.8429 32.8783 19 35 19C37.1217 19 39.1566 19.8429 40.6569 21.3431C42.1572 22.8434 43 24.8783 43 27C43 31.5063 44.035 35.3412 45 37H25Z" fill="#191C1F"/>
</g>
<path d="M69.196 39V21.648H71.68L80.512 34.584V21.648H83.092V39H80.788L71.764 25.788V39H69.196ZM91.8983 39.24C90.7383 39.24 89.7263 38.992 88.8623 38.496C87.9983 37.992 87.3263 37.264 86.8463 36.312C86.3663 35.36 86.1263 34.208 86.1263 32.856C86.1263 31.552 86.3543 30.412 86.8103 29.436C87.2663 28.46 87.9223 27.704 88.7783 27.168C89.6423 26.624 90.6863 26.352 91.9103 26.352C93.0783 26.352 94.0903 26.608 94.9463 27.12C95.8023 27.624 96.4663 28.364 96.9383 29.34C97.4103 30.308 97.6463 31.48 97.6463 32.856C97.6463 34.112 97.4263 35.22 96.9863 36.18C96.5463 37.14 95.8983 37.892 95.0423 38.436C94.1943 38.972 93.1463 39.24 91.8983 39.24ZM91.9103 37.26C92.6223 37.26 93.2143 37.076 93.6863 36.708C94.1583 36.332 94.5143 35.808 94.7543 35.136C94.9943 34.456 95.1143 33.672 95.1143 32.784C95.1143 31.96 95.0063 31.212 94.7903 30.54C94.5823 29.86 94.2423 29.32 93.7703 28.92C93.3063 28.52 92.6863 28.32 91.9103 28.32C91.1983 28.32 90.5983 28.504 90.1103 28.872C89.6303 29.232 89.2703 29.748 89.0303 30.42C88.7903 31.084 88.6703 31.872 88.6703 32.784C88.6703 33.592 88.7783 34.336 88.9943 35.016C89.2103 35.696 89.5543 36.24 90.0263 36.648C90.5063 37.056 91.1343 37.26 91.9103 37.26ZM104.699 39.084C103.779 39.084 103.067 38.96 102.563 38.712C102.059 38.464 101.707 38.108 101.507 37.644C101.307 37.172 101.207 36.604 101.207 35.94V28.44H99.1913V26.592H101.291L101.915 22.944H103.787V26.58H106.571V28.44H103.787L103.799 35.844C103.799 36.252 103.839 36.552 103.919 36.744C104.007 36.928 104.151 37.048 104.351 37.104C104.559 37.152 104.839 37.176 105.191 37.176H106.631V38.844C106.479 38.908 106.243 38.964 105.923 39.012C105.611 39.06 105.203 39.084 104.699 39.084ZM109.511 39V26.592H111.983V39H109.511ZM109.451 24.192V21.66H112.031V24.192H109.451ZM117.105 39V28.44H114.573V26.592H117.105V24.708C117.105 23.716 117.365 22.96 117.885 22.44C118.413 21.912 119.189 21.648 120.213 21.648H122.697L122.709 23.424H120.909C120.421 23.424 120.085 23.556 119.901 23.82C119.725 24.076 119.637 24.472 119.637 25.008V26.592H122.589V28.44H119.685V39H117.105ZM125.085 39V26.592H127.557V39H125.085ZM125.025 24.192V21.66H127.605V24.192H125.025ZM136.207 39.24C135.087 39.24 134.091 38.996 133.219 38.508C132.347 38.012 131.663 37.288 131.167 36.336C130.671 35.376 130.423 34.212 130.423 32.844C130.423 31.556 130.651 30.424 131.107 29.448C131.571 28.472 132.235 27.712 133.099 27.168C133.963 26.624 134.999 26.352 136.207 26.352C137.143 26.352 137.971 26.536 138.691 26.904C139.411 27.264 139.995 27.768 140.443 28.416C140.899 29.064 141.175 29.82 141.271 30.684H139.039C138.975 30.276 138.823 29.896 138.583 29.544C138.343 29.192 138.027 28.912 137.635 28.704C137.243 28.488 136.775 28.38 136.231 28.38C135.231 28.38 134.419 28.744 133.795 29.472C133.171 30.2 132.859 31.316 132.859 32.82C132.859 34.196 133.151 35.292 133.735 36.108C134.319 36.924 135.163 37.332 136.267 37.332C136.811 37.332 137.279 37.22 137.671 36.996C138.063 36.772 138.375 36.484 138.607 36.132C138.847 35.78 138.999 35.416 139.063 35.04H141.247C141.151 35.872 140.875 36.604 140.419 37.236C139.971 37.868 139.387 38.36 138.667 38.712C137.947 39.064 137.127 39.24 136.207 39.24ZM147.585 39.24C146.785 39.24 146.073 39.096 145.449 38.808C144.833 38.52 144.349 38.104 143.997 37.56C143.645 37.016 143.469 36.36 143.469 35.592C143.469 34.216 143.953 33.188 144.921 32.508C145.897 31.828 147.457 31.468 149.601 31.428L151.641 31.368V30.468C151.641 29.756 151.429 29.196 151.005 28.788C150.581 28.38 149.925 28.18 149.037 28.188C148.381 28.188 147.793 28.34 147.273 28.644C146.753 28.948 146.413 29.448 146.253 30.144H144.033C144.081 29.32 144.317 28.628 144.741 28.068C145.173 27.5 145.765 27.072 146.517 26.784C147.269 26.496 148.149 26.352 149.157 26.352C150.293 26.352 151.225 26.508 151.953 26.82C152.681 27.124 153.221 27.572 153.573 28.164C153.933 28.756 154.113 29.476 154.113 30.324V39H151.929L151.737 36.72C151.273 37.672 150.685 38.332 149.973 38.7C149.261 39.06 148.465 39.24 147.585 39.24ZM148.389 37.452C148.781 37.452 149.169 37.384 149.553 37.248C149.937 37.104 150.285 36.912 150.597 36.672C150.909 36.424 151.157 36.148 151.341 35.844C151.533 35.54 151.633 35.228 151.641 34.908V32.856L149.961 32.892C149.105 32.9 148.377 32.988 147.777 33.156C147.185 33.324 146.729 33.584 146.409 33.936C146.097 34.288 145.941 34.756 145.941 35.34C145.941 36.004 146.169 36.524 146.625 36.9C147.089 37.268 147.677 37.452 148.389 37.452ZM162.504 39.24C161.384 39.24 160.388 38.996 159.516 38.508C158.644 38.012 157.96 37.288 157.464 36.336C156.968 35.376 156.72 34.212 156.72 32.844C156.72 31.556 156.948 30.424 157.404 29.448C157.868 28.472 158.532 27.712 159.396 27.168C160.26 26.624 161.296 26.352 162.504 26.352C163.44 26.352 164.268 26.536 164.988 26.904C165.708 27.264 166.292 27.768 166.74 28.416C167.196 29.064 167.472 29.82 167.568 30.684H165.336C165.272 30.276 165.12 29.896 164.88 29.544C164.64 29.192 164.324 28.912 163.932 28.704C163.54 28.488 163.072 28.38 162.528 28.38C161.528 28.38 160.716 28.744 160.092 29.472C159.468 30.2 159.156 31.316 159.156 32.82C159.156 34.196 159.448 35.292 160.032 36.108C160.616 36.924 161.46 37.332 162.564 37.332C163.108 37.332 163.576 37.22 163.968 36.996C164.36 36.772 164.672 36.484 164.904 36.132C165.144 35.78 165.296 35.416 165.36 35.04H167.544C167.448 35.872 167.172 36.604 166.716 37.236C166.268 37.868 165.684 38.36 164.964 38.712C164.244 39.064 163.424 39.24 162.504 39.24ZM170.402 39V26.592H172.874V39H170.402ZM170.342 24.192V21.66H172.922V24.192H170.342ZM181.5 39.24C180.34 39.24 179.328 38.992 178.464 38.496C177.6 37.992 176.928 37.264 176.448 36.312C175.968 35.36 175.728 34.208 175.728 32.856C175.728 31.552 175.956 30.412 176.412 29.436C176.868 28.46 177.524 27.704 178.38 27.168C179.244 26.624 180.288 26.352 181.512 26.352C182.68 26.352 183.692 26.608 184.548 27.12C185.404 27.624 186.068 28.364 186.54 29.34C187.012 30.308 187.248 31.48 187.248 32.856C187.248 34.112 187.028 35.22 186.588 36.18C186.148 37.14 185.5 37.892 184.644 38.436C183.796 38.972 182.748 39.24 181.5 39.24ZM181.512 37.26C182.224 37.26 182.816 37.076 183.288 36.708C183.76 36.332 184.116 35.808 184.356 35.136C184.596 34.456 184.716 33.672 184.716 32.784C184.716 31.96 184.608 31.212 184.392 30.54C184.184 29.86 183.844 29.32 183.372 28.92C182.908 28.52 182.288 28.32 181.512 28.32C180.8 28.32 180.2 28.504 179.712 28.872C179.232 29.232 178.872 29.748 178.632 30.42C178.392 31.084 178.272 31.872 178.272 32.784C178.272 33.592 178.38 34.336 178.596 35.016C178.812 35.696 179.156 36.24 179.628 36.648C180.108 37.056 180.736 37.26 181.512 37.26ZM190.053 39V26.592H192.561V28.38C192.761 28.044 193.029 27.728 193.365 27.432C193.709 27.136 194.129 26.896 194.625 26.712C195.129 26.528 195.709 26.436 196.365 26.436C197.141 26.436 197.857 26.592 198.513 26.904C199.177 27.208 199.709 27.688 200.109 28.344C200.509 28.992 200.708 29.832 200.708 30.864V39H198.141V31.14C198.141 30.252 197.901 29.592 197.421 29.16C196.949 28.728 196.337 28.512 195.585 28.512C195.081 28.512 194.601 28.596 194.145 28.764C193.689 28.932 193.321 29.188 193.041 29.532C192.761 29.868 192.621 30.292 192.621 30.804V39H190.053ZM209.374 39.24C208.198 39.24 207.162 38.988 206.266 38.484C205.37 37.972 204.67 37.244 204.166 36.3C203.67 35.356 203.422 34.232 203.422 32.928C203.422 31.64 203.65 30.504 204.106 29.52C204.562 28.528 205.222 27.752 206.086 27.192C206.95 26.632 207.99 26.352 209.206 26.352C210.398 26.352 211.406 26.608 212.23 27.12C213.054 27.632 213.678 28.352 214.102 29.28C214.526 30.2 214.738 31.288 214.738 32.544V33.396H206.002C205.994 34.14 206.114 34.808 206.362 35.4C206.61 35.984 206.978 36.448 207.466 36.792C207.962 37.128 208.578 37.296 209.314 37.296C210.058 37.296 210.698 37.128 211.234 36.792C211.778 36.456 212.134 35.956 212.302 35.292H214.678C214.534 36.14 214.194 36.86 213.658 37.452C213.122 38.044 212.478 38.492 211.726 38.796C210.974 39.092 210.19 39.24 209.374 39.24ZM206.002 31.728H212.29C212.29 31.08 212.178 30.492 211.954 29.964C211.73 29.428 211.386 29.008 210.922 28.704C210.466 28.392 209.89 28.236 209.194 28.236C208.482 28.236 207.89 28.408 207.418 28.752C206.946 29.096 206.59 29.536 206.35 30.072C206.118 30.608 206.002 31.16 206.002 31.728ZM222.212 39.24C221.348 39.24 220.536 39.104 219.776 38.832C219.024 38.56 218.392 38.132 217.88 37.548C217.376 36.964 217.06 36.216 216.932 35.304H219.224C219.328 35.776 219.524 36.168 219.812 36.48C220.108 36.784 220.46 37.012 220.868 37.164C221.284 37.308 221.728 37.38 222.2 37.38C222.984 37.38 223.62 37.24 224.108 36.96C224.596 36.672 224.84 36.232 224.84 35.64C224.84 35.216 224.708 34.876 224.444 34.62C224.18 34.364 223.768 34.176 223.208 34.056L220.736 33.468C219.712 33.228 218.892 32.848 218.276 32.328C217.66 31.8 217.348 31.064 217.34 30.12C217.34 29.392 217.52 28.744 217.88 28.176C218.248 27.608 218.792 27.164 219.512 26.844C220.24 26.516 221.136 26.352 222.2 26.352C223.6 26.352 224.724 26.664 225.572 27.288C226.428 27.912 226.868 28.816 226.892 30H224.672C224.592 29.432 224.332 28.988 223.892 28.668C223.46 28.34 222.888 28.176 222.176 28.176C221.44 28.176 220.836 28.324 220.364 28.62C219.892 28.908 219.656 29.352 219.656 29.952C219.656 30.36 219.828 30.684 220.172 30.924C220.524 31.156 221.04 31.348 221.72 31.5L224.072 32.088C224.68 32.248 225.18 32.46 225.572 32.724C225.964 32.98 226.272 33.264 226.496 33.576C226.72 33.888 226.876 34.212 226.964 34.548C227.06 34.884 227.108 35.2 227.108 35.496C227.108 36.28 226.908 36.952 226.508 37.512C226.116 38.064 225.556 38.492 224.828 38.796C224.1 39.092 223.228 39.24 222.212 39.24Z" fill="#191C1F"/>
<defs>
<filter id="filter0_d_27_2114" x="15" y="14" width="40" height="40" filterUnits="userSpaceOnUse" color-interpolation-filters="sRGB">
<feFlood flood-opacity="0" result="BackgroundImageFix"/>
<feColorMatrix in="SourceAlpha" type="matrix" values="0 0 0 0 0 0 0 0 0 0 0 0 0 0 0 0 0 0 127 0" result="hardAlpha"/>
<feOffset dy="4"/>
<feGaussianBlur stdDeviation="2"/>
<feComposite in2="hardAlpha" operator="out"/>
<feColorMatrix type="matrix" values="0 0 0 0 0 0 0 0 0 0 0 0 0 0 0 0 0 0 0.25 0"/>
<feBlend mode="normal" in2="BackgroundImageFix" result="effect1_dropShadow_27_2114"/>
<feBlend mode="normal" in="SourceGraphic" in2="effect1_dropShadow_27_2114" result="shape"/>
</filter>
</defs>
</svg>
